<svg width="339" height="117" viewBox="0 0 339 117" fill="none" xmlns="http://www.w3.org/2000/svg"><g clip-path="url(#a)"><path d="M334.39 51.07c-1 1.92-2.07 3.84-3.1 5.78a728.739 728.739 0 0 0-10.38 20.19l-2.18 4.42a38.475 38.475 0 0 1-3.06 4.87 34.005 34.005 0 0 1-7.83 7.68c-.43.31-.86.61-1.3.9a28.31 28.31 0 0 0-12.81-.46c-23.79 4.7-21.62 10-71.16-6.87-11.16-3.79-22.84-1.38-34.49.27-.98-3.033-1.98-6.033-3-9a848.568 848.568 0 0 0-11.65-32.49c-.82-2.14-1.64-4.29-2.48-6.43l3.19-.55s.76 2.34 2.07 5.8c3.91 10.37 13 31 24 29.82 13-1.08 14.26-25.47 14-37.68-.08-4.1-.32-6.82-.35-6.84 1.47-.07 2.94-.13 4.4-.17 0 0 .1 2.57.45 6.42 1.09 12.2 4.69 37.46 15.57 36.89 14.07-.41 17.6-36.79 18.38-54.52.25-5.71.21-9.49.15-9.52l4 .26c-.06 0-.55 3.78-1 9.48-1.38 17.7-2.26 54.24 11.64 56.56 10.86 2.07 17.52-23.18 20-34.91.74-3.5 1.11-5.82 1.11-5.86l4.35.77a53.073 53.073 0 0 0-1.52 6.06c-2.39 11.38-5.57 35.19 7.07 39.35 12.5 4.44 24.86-15.89 30.15-25.88 1.67-3.14 2.64-5.26 2.69-5.28 1.02.28 2.05.6 3.09.94Z" fill="url(#b)"/><path d="M296.61 36.05a6.065 6.065 0 0 1-3.948 5.512 6.068 6.068 0 0 1-2.352.378 6.19 6.19 0 0 1-5.55-6.69 6.065 6.065 0 0 1 3.948-5.512 6.068 6.068 0 0 1 2.352-.378 6.18 6.18 0 0 1 5.55 6.69Z" fill="url(#c)"/><path d="M338.52 51.11a6.059 6.059 0 0 1-.538 2.32 6.066 6.066 0 0 1-3.411 3.19 6.08 6.08 0 0 1-2.351.38 6.19 6.19 0 0 1-5.55-6.69 6.059 6.059 0 0 1 1.926-4.262 6.056 6.056 0 0 1 4.384-1.628 6.171 6.171 0 0 1 5.54 6.69Z" fill="url(#d)"/><path d="M221.75 31.6a6.065 6.065 0 0 1-3.948 5.512 6.07 6.07 0 0 1-2.352.378 6.19 6.19 0 0 1-5.55-6.69 6.077 6.077 0 0 1 1.919-4.265A6.059 6.059 0 0 1 216.2 24.9a6.183 6.183 0 0 1 5.55 6.7Z" fill="url(#e)"/><path d="M178.6 40.46a6.065 6.065 0 0 1-3.948 5.512 6.068 6.068 0 0 1-2.352.378 6.19 6.19 0 0 1-5.55-6.69 6.077 6.077 0 0 1 3.949-5.51 6.08 6.08 0 0 1 2.351-.38 6.19 6.19 0 0 1 5.55 6.69Z" fill="url(#f)"/><path d="M263.94 10.29a9.318 9.318 0 0 1-9.66 9c-5-.34-8.82-4.94-8.5-10.27a9.307 9.307 0 0 1 6.061-8.423A9.308 9.308 0 0 1 255.44.02c5.01.34 8.82 4.94 8.5 10.27Z" fill="url(#g)"/><path d="M320.91 77.04c-.67 1.45-1.39 3-2.19 4.42a38.468 38.468 0 0 1-3.06 4.87 34.005 34.005 0 0 1-7.83 7.68c-.43.31-.86.61-1.3.9a33.694 33.694 0 0 1-3.34 1.91 44.134 44.134 0 0 1-4.9 2.15 57.078 57.078 0 0 1-10.1 2.7 95.331 95.331 0 0 1-20.32 1.11 144.214 144.214 0 0 1-20-2.34c-3.28-.62-6.52-1.29-9.74-2l-9.6-2.24c-6.36-1.52-12.67-3-19-4.33a294.374 294.374 0 0 0-38.21-5.44 328.061 328.061 0 0 0-38.67-.4c-3.22.15-6.46.31-9.68.57-3.22.26-6.46.48-9.68.77-6.44.65-12.87 1.41-19.26 2.39a252.174 252.174 0 0 0-37.87 9c-6.2 2-12.32 4.3-18.39 6.8s-12 5.31-17.91 8.28c2.84-1.7 5.63-3.5 8.54-5.09 1.45-.81 2.87-1.65 4.34-2.44l4.41-2.28c5.91-3 11.91-5.81 18.07-8.19s12.4-4.64 18.73-6.52 12.76-3.46 19.21-4.83c6.45-1.37 13-2.49 19.46-3.39 3.26-.44 6.54-.87 9.8-1.2 3.26-.33 6.54-.69 9.81-1 3.27-.31 6.56-.52 9.85-.74 3.29-.22 6.58-.32 9.88-.38 6.59-.16 13.2-.12 19.8.17 4.43.2 8.87.5 13.28.91 2.167.187 4.337.413 6.51.68 6.57.79 13.11 1.85 19.6 3.07 4 .76 8 1.58 12 2.43 8.89 1.89 17.67 3.91 26.36 5.53a169.66 169.66 0 0 0 18.85 2.51c1.58.11 3.15.18 4.72.27 1.57.09 3.16.08 4.71.07 3.106.015 6.21-.132 9.3-.44a65.21 65.21 0 0 0 6.76-1.09c.76-.167 1.51-.347 2.25-.54a37.05 37.05 0 0 0 8.35-3.3 30.791 30.791 0 0 0 7.22-5.47 63.258 63.258 0 0 0 6.03-7.68l3.18 2.14h.03Z" fill="url(#h)"/><path d="M0 115.65a99.749 99.749 0 0 1 13.7-11.41l3.69-2.5c1.23-.84 2.51-1.56 3.77-2.35 1.26-.79 2.53-1.56 3.81-2.29l3.9-2.11c1.31-.69 2.6-1.42 3.92-2.08l4-1.87 4-1.87c1.36-.58 2.73-1.11 4.09-1.66l4.17-1.61 2.06-.79 2.09-.69 8.37-2.76 8.51-2.21c1.42-.34 2.83-.77 4.27-1.05l4.3-.83c2.88-.51 5.75-1.11 8.63-1.54 2.88-.43 5.8-.71 8.69-1l4.35-.49 4.36-.2 8.73-.35c1.45-.08 2.9 0 4.36 0l4.36.15c2.9.12 5.8.24 8.69.42-2.9.27-5.79.48-8.68.69l-4.32.29c-1.44.09-2.89.16-4.32.38l-8.61 1-4.29.47-4.27.71c-2.85.48-5.69.95-8.53 1.39-2.84.44-5.64 1.2-8.46 1.8l-4.23.89c-1.41.29-2.79.72-4.18 1.08l-8.35 2.25-8.25 2.62-2.07.66-2 .76-4.06 1.52c-1.35.5-2.72 1-4.06 1.51l-4 1.7-4 1.7c-1.33.58-2.63 1.23-3.94 1.84A171.004 171.004 0 0 0 0 115.65Z" fill="url(#i)"/><path d="M326.53 86.9a30.002 30.002 0 0 1-5.83 11.86 39.627 39.627 0 0 1-4.56 4.86 44.41 44.41 0 0 1-5.28 4 55.377 55.377 0 0 1-24.45 8.07c-1.07.09-2.13.22-3.19.27l-3.19.12c-1.06.06-2.12 0-3.18 0s-2.12 0-3.18-.09a101.283 101.283 0 0 1-12.54-1.57 109.232 109.232 0 0 1-24-7.47c8.29 1 16.43 2.16 24.56 2.79 1 .1 2 .18 3.05.21l3 .18c2 .11 4 .1 6.06.17 4.007.021 8.013-.17 12-.57a65.18 65.18 0 0 0 22.9-6.24 49.825 49.825 0 0 0 5.19-3 47.71 47.71 0 0 0 4.79-3.76 36.365 36.365 0 0 0 7.85-9.83Z" fill="url(#j)"/></g><defs><linearGradient id="b" x1="249.283" y1="97.963" x2="254.93" y2="9.683" gradientUnits="userSpaceOnUse"><stop stop-color="#E9C156"/><stop offset=".04" stop-color="#B28639"/><stop offset=".08" stop-color="#79491C"/><stop offset=".1" stop-color="#633110"/><stop offset=".13" stop-color="#6F3C14"/><stop offset=".18" stop-color="#8D5A1E"/><stop offset=".25" stop-color="#BF8A2E"/><stop offset=".29" stop-color="#E1AB39"/><stop offset=".31" stop-color="#E3B141"/><stop offset=".41" stop-color="#EDCD66"/><stop offset=".52" stop-color="#F5E384"/><stop offset=".62" stop-color="#FBF299"/><stop offset=".72" stop-color="#FEFCA6"/><stop offset=".82" stop-color="#FFA"/><stop offset=".85" stop-color="#FDFAA3"/><stop offset=".9" stop-color="#F8EC90"/><stop offset=".96" stop-color="#F0D571"/><stop offset="1" stop-color="#E9C156"/></linearGradient><linearGradient id="c" x1="290.262" y1="41.954" x2="291.067" y2="29.38" gradientUnits="userSpaceOnUse"><stop stop-color="#E9C156"/><stop offset=".04" stop-color="#B28639"/><stop offset=".08" stop-color="#79491C"/><stop offset=".1" stop-color="#633110"/><stop offset=".13" stop-color="#6F3C14"/><stop offset=".18" stop-color="#8D5A1E"/><stop offset=".25" stop-color="#BF8A2E"/><stop offset=".29" stop-color="#E1AB39"/><stop offset=".31" stop-color="#E3B141"/><stop offset=".41" stop-color="#EDCD66"/><stop offset=".52" stop-color="#F5E384"/><stop offset=".62" stop-color="#FBF299"/><stop offset=".72" stop-color="#FEFCA6"/><stop offset=".82" stop-color="#FFA"/><stop offset=".85" stop-color="#FDFAA3"/><stop offset=".9" stop-color="#F8EC90"/><stop offset=".96" stop-color="#F0D571"/><stop offset="1" stop-color="#E9C156"/></linearGradient><linearGradient id="d" x1="332.177" y1="57.011" x2="332.981" y2="44.436" gradientUnits="userSpaceOnUse"><stop stop-color="#E9C156"/><stop offset=".04" stop-color="#B28639"/><stop offset=".08" stop-color="#79491C"/><stop offset=".1" stop-color="#633110"/><stop offset=".13" stop-color="#6F3C14"/><stop offset=".18" stop-color="#8D5A1E"/><stop offset=".25" stop-color="#BF8A2E"/><stop offset=".29" stop-color="#E1AB39"/><stop offset=".31" stop-color="#E3B141"/><stop offset=".41" stop-color="#EDCD66"/><stop offset=".52" stop-color="#F5E384"/><stop offset=".62" stop-color="#FBF299"/><stop offset=".72" stop-color="#FEFCA6"/><stop offset=".82" stop-color="#FFA"/><stop offset=".85" stop-color="#FDFAA3"/><stop offset=".9" stop-color="#F8EC90"/><stop offset=".96" stop-color="#F0D571"/><stop offset="1" stop-color="#E9C156"/></linearGradient><linearGradient id="e" x1="215.404" y1="37.507" x2="216.209" y2="24.922" gradientUnits="userSpaceOnUse"><stop stop-color="#E9C156"/><stop offset=".04" stop-color="#B28639"/><stop offset=".08" stop-color="#79491C"/><stop offset=".1" stop-color="#633110"/><stop offset=".13" stop-color="#6F3C14"/><stop offset=".18" stop-color="#8D5A1E"/><stop offset=".25" stop-color="#BF8A2E"/><stop offset=".29" stop-color="#E1AB39"/><stop offset=".31" stop-color="#E3B141"/><stop offset=".41" stop-color="#EDCD66"/><stop offset=".52" stop-color="#F5E384"/><stop offset=".62" stop-color="#FBF299"/><stop offset=".72" stop-color="#FEFCA6"/><stop offset=".82" stop-color="#FFA"/><stop offset=".85" stop-color="#FDFAA3"/><stop offset=".9" stop-color="#F8EC90"/><stop offset=".96" stop-color="#F0D571"/><stop offset="1" stop-color="#E9C156"/></linearGradient><linearGradient id="f" x1="172.26" y1="46.361" x2="173.065" y2="33.786" gradientUnits="userSpaceOnUse"><stop stop-color="#E9C156"/><stop offset=".04" stop-color="#B28639"/><stop offset=".08" stop-color="#79491C"/><stop offset=".1" stop-color="#633110"/><stop offset=".13" stop-color="#6F3C14"/><stop offset=".18" stop-color="#8D5A1E"/><stop offset=".25" stop-color="#BF8A2E"/><stop offset=".29" stop-color="#E1AB39"/><stop offset=".31" stop-color="#E3B141"/><stop offset=".41" stop-color="#EDCD66"/><stop offset=".52" stop-color="#F5E384"/><stop offset=".62" stop-color="#FBF299"/><stop offset=".72" stop-color="#FEFCA6"/><stop offset=".82" stop-color="#FFA"/><stop offset=".85" stop-color="#FDFAA3"/><stop offset=".9" stop-color="#F8EC90"/><stop offset=".96" stop-color="#F0D571"/><stop offset="1" stop-color="#E9C156"/></linearGradient><linearGradient id="g" x1="254.223" y1="19.328" x2="255.457" y2=".047" gradientUnits="userSpaceOnUse"><stop stop-color="#E9C156"/><stop offset=".04" stop-color="#B28639"/><stop offset=".08" stop-color="#79491C"/><stop offset=".1" stop-color="#633110"/><stop offset=".13" stop-color="#6F3C14"/><stop offset=".18" stop-color="#8D5A1E"/><stop offset=".25" stop-color="#BF8A2E"/><stop offset=".29" stop-color="#E1AB39"/><stop offset=".31" stop-color="#E3B141"/><stop offset=".41" stop-color="#EDCD66"/><stop offset=".52" stop-color="#F5E384"/><stop offset=".62" stop-color="#FBF299"/><stop offset=".72" stop-color="#FEFCA6"/><stop offset=".82" stop-color="#FFA"/><stop offset=".85" stop-color="#FDFAA3"/><stop offset=".9" stop-color="#F8EC90"/><stop offset=".96" stop-color="#F0D571"/><stop offset="1" stop-color="#E9C156"/></linearGradient><linearGradient id="h" x1="167.54" y1="122.11" x2="181.33" y2="-6.93" gradientUnits="userSpaceOnUse"><stop stop-color="#E9C156"/><stop offset=".04" stop-color="#B28639"/><stop offset=".08" stop-color="#79491C"/><stop offset=".1" stop-color="#633110"/><stop offset=".13" stop-color="#6F3C14"/><stop offset=".18" stop-color="#8D5A1E"/><stop offset=".25" stop-color="#BF8A2E"/><stop offset=".29" stop-color="#E1AB39"/><stop offset=".31" stop-color="#E3B141"/><stop offset=".41" stop-color="#EDCD66"/><stop offset=".52" stop-color="#F5E384"/><stop offset=".62" stop-color="#FBF299"/><stop offset=".72" stop-color="#FEFCA6"/><stop offset=".82" stop-color="#FFA"/><stop offset=".85" stop-color="#FDFAA3"/><stop offset=".9" stop-color="#F8EC90"/><stop offset=".96" stop-color="#F0D571"/><stop offset="1" stop-color="#E9C156"/></linearGradient><linearGradient id="i" x1="58.47" y1="56.69" x2="77.72" y2="163.17" gradientUnits="userSpaceOnUse"><stop stop-color="#E9C156"/><stop offset=".04" stop-color="#B28639"/><stop offset=".08" stop-color="#79491C"/><stop offset=".1" stop-color="#633110"/><stop offset=".13" stop-color="#6F3C14"/><stop offset=".18" stop-color="#8D5A1E"/><stop offset=".25" stop-color="#BF8A2E"/><stop offset=".29" stop-color="#E1AB39"/><stop offset=".31" stop-color="#E3B141"/><stop offset=".41" stop-color="#EDCD66"/><stop offset=".52" stop-color="#F5E384"/><stop offset=".62" stop-color="#FBF299"/><stop offset=".72" stop-color="#FEFCA6"/><stop offset=".82" stop-color="#FFA"/><stop offset=".85" stop-color="#FDFAA3"/><stop offset=".9" stop-color="#F8EC90"/><stop offset=".96" stop-color="#F0D571"/><stop offset="1" stop-color="#E9C156"/></linearGradient><linearGradient id="j" x1="277.29" y1="146.84" x2="289.64" y2="10.16" gradientUnits="userSpaceOnUse"><stop stop-color="#E9C156"/><stop offset=".04" stop-color="#B28639"/><stop offset=".08" stop-color="#79491C"/><stop offset=".1" stop-color="#633110"/><stop offset=".13" stop-color="#6F3C14"/><stop offset=".18" stop-color="#8D5A1E"/><stop offset=".25" stop-color="#BF8A2E"/><stop offset=".29" stop-color="#E1AB39"/><stop offset=".31" stop-color="#E3B141"/><stop offset=".41" stop-color="#EDCD66"/><stop offset=".52" stop-color="#F5E384"/><stop offset=".62" stop-color="#FBF299"/><stop offset=".72" stop-color="#FEFCA6"/><stop offset=".82" stop-color="#FFA"/><stop offset=".85" stop-color="#FDFAA3"/><stop offset=".9" stop-color="#F8EC90"/><stop offset=".96" stop-color="#F0D571"/><stop offset="1" stop-color="#E9C156"/></linearGradient><clipPath id="a"><path fill="#fff" d="M0 0h338.53v116.1H0z"/></clipPath></defs></svg>