<svg width="25" height="42" viewBox="0 0 25 42" fill="none" xmlns="http://www.w3.org/2000/svg">
<g clip-path="url(#clip0_1_9)">
<g style="mix-blend-mode:multiply">
<path d="M11.39 25.21L5.36 19.17H0L6.02 25.21H11.39Z" fill="#CCCCCC"/>
</g>
<g style="mix-blend-mode:multiply">
<path d="M11.92 19.19L11.8 35.03H5.23999L11.24 41.03H17.8L17.92 25.22H23.32C23.63 23.13 23.9 21.05 24.21 18.89L18.41 13.07C18.41 13.01 18.48 12.94 18.52 12.89C18.5181 12.8634 18.5181 12.8366 18.52 12.81L18.63 12.7C18.7099 12.6064 18.8005 12.5225 18.9 12.45L19.06 12.35C19.1558 12.2921 19.2562 12.2419 19.36 12.2L19.55 12.13C19.6713 12.0895 19.7948 12.0561 19.92 12.03H20.09C20.2888 11.9991 20.4891 11.9791 20.69 11.97H22.08H24.38L24.43 6.33001L18.43 0.330002V5.96H16.06H14.67C14.4724 5.96908 14.2754 5.98911 14.08 6.02H13.9C13.7743 6.03935 13.6505 6.06946 13.53 6.11L13.35 6.18C13.242 6.21981 13.1382 6.27005 13.04 6.33001L12.89 6.43C12.7907 6.50268 12.7001 6.58656 12.62 6.68L12.53 6.76001L12.47 6.84C12.47 6.84 12.39 6.95001 12.36 7.01001C12.33 7.07001 12.36 7.10001 12.29 7.15001V7.24V7.31C12.246 7.43105 12.2093 7.5546 12.18 7.68V7.84C12.18 7.95 12.18 8.06 12.13 8.18C12.135 8.23322 12.135 8.28678 12.13 8.34C12.13 9.68 12.05 12.65 12.05 12.81L17.51 18.29L17.39 19.14L11.92 19.19Z" fill="#CCCCCC"/>
</g>
<path d="M13.81 0.0300004C14.75 0.0300004 15.69 0.0800006 16.62 0.120001C17.23 0.120001 17.84 0.230001 18.41 0.300001V5.93H16.06H14.67C13.18 5.93 12.08 6.53 12 8.4C12 9.74 11.92 12.71 11.92 12.87H18.14C17.84 15.03 17.56 17.11 17.26 19.2H11.92L11.8 35.03H5.24L5.32 19.17H0V12.87H5.39V12.4C5.39 11.13 5.39 9.86 5.39 8.59C5.395 7.78232 5.46523 6.97637 5.6 6.18C5.7443 5.24449 6.07215 4.34675 6.5647 3.53843C7.05724 2.7301 7.70476 2.02714 8.47 1.47C9.89567 0.493289 11.5923 -0.0104617 13.32 0.0300004H13.81Z" fill="white"/>
</g>
<defs>
<clipPath id="clip0_1_9">
<rect width="24.43" height="41.05" fill="white"/>
</clipPath>
</defs>
</svg>
