<svg width="39" height="33" viewBox="0 0 39 33" fill="none" xmlns="http://www.w3.org/2000/svg">
<g clip-path="url(#clip0_1_15)">
<g style="mix-blend-mode:multiply">
<path d="M9.69004 8.67C9.26004 8.23 8.83005 7.77 8.42005 7.28L2.42004 1.28C2.83004 1.76 3.25005 2.23 3.69005 2.66L9.69004 8.67Z" fill="#CCCCCC"/>
</g>
<g style="mix-blend-mode:multiply">
<path d="M3.40002 9.25L9.40002 15.25C9.69292 15.5398 10.0071 15.8072 10.34 16.05L4.34003 10.05C4.00508 9.80983 3.69066 9.54224 3.40002 9.25Z" fill="#CCCCCC"/>
</g>
<g style="mix-blend-mode:multiply">
<path d="M3.33997 14.09L9.33997 20.09C10.2529 20.9843 11.4006 21.6015 12.65 21.87L6.64996 15.87C5.39843 15.6073 4.2492 14.9892 3.33997 14.09Z" fill="#CCCCCC"/>
</g>
<g style="mix-blend-mode:multiply">
<path d="M37.15 7.73001C37.2 7.64001 37.24 7.54 37.28 7.45C37.3686 7.2891 37.4455 7.122 37.51 6.95C37.51 6.83 37.6 6.70001 37.64 6.57001L31.64 0.570007C31.5374 0.871623 31.4137 1.16567 31.27 1.45L31.15 1.72001C31.0351 1.92399 30.9082 2.121 30.77 2.31001C30.68 2.42001 30.61 2.55001 30.52 2.66001C30.3633 2.85523 30.1928 3.03902 30.01 3.21001C29.9251 3.30494 29.8349 3.39508 29.74 3.48001C29.4513 3.74334 29.1401 3.98092 28.81 4.19001L30.32 5.7C30 5.98 29.69 6.26001 29.32 6.51001L29.21 6.73001C29.24 7.31963 29.24 7.91039 29.21 8.50001C29.21 8.89001 29.15 9.28001 29.1 9.67001C29.0309 10.2351 28.9307 10.7959 28.8 11.35C28.73 11.69 28.64 12.03 28.55 12.35C28.55 12.48 28.48 12.61 28.44 12.74C28.3 13.21 28.15 13.67 27.97 14.13C27.79 14.59 27.58 15.13 27.35 15.59C27.12 16.05 26.91 16.45 26.68 16.86C26.45 17.27 26.33 17.44 26.15 17.72L25.8 18.27C25.59 18.58 25.36 18.88 25.13 19.18C25.02 19.31 24.92 19.46 24.82 19.59C24.47 20.02 24.1 20.43 23.72 20.83C21.3557 23.2916 18.3372 25.0264 15.02 25.83L9.87999 20.67C8.16136 20.6185 6.52995 19.9014 5.32999 18.67L11.33 24.67C11.9058 25.2495 12.5839 25.7174 13.33 26.05C12.4796 26.1886 11.6212 26.2721 10.76 26.3H10.15C6.61206 26.3102 3.14406 25.3148 0.149994 23.43L-0.0100098 23.33L5.98999 29.33L6.14999 29.43C9.14293 31.3174 12.6117 32.3129 16.15 32.3H16.74C17.9909 32.2688 19.2363 32.1215 20.46 31.86C23.9615 31.1172 27.1595 29.3406 29.64 26.76C30.03 26.37 30.39 25.95 30.74 25.53C30.84 25.4 30.92 25.27 31.02 25.15C31.25 24.85 31.48 24.55 31.7 24.24C31.92 23.93 31.93 23.87 32.04 23.69C32.15 23.51 32.4 23.12 32.57 22.83L32.65 22.71C32.86 22.33 33.06 21.95 33.25 21.55C33.44 21.15 33.68 20.55 33.87 20.1C34.04 19.65 34.19 19.2 34.33 18.74C34.33 18.61 34.39 18.48 34.43 18.35C34.51 18.05 34.6 17.76 34.67 17.45C34.67 17.45 34.67 17.37 34.67 17.33C34.79 16.78 34.89 16.23 34.97 15.66C34.97 15.34 35.04 15.02 35.07 14.66V14.46C35.1 13.8671 35.1 13.273 35.07 12.68L35.19 12.47C35.6387 12.1441 36.0662 11.7901 36.47 11.41C36.6 11.28 36.72 11.14 36.84 11.01C37.1053 10.7546 37.3558 10.4842 37.59 10.2C37.6297 10.1558 37.6665 10.1091 37.7 10.06C37.9301 9.77923 38.1438 9.48542 38.34 9.18001L37.15 7.79001V7.73001Z" fill="#CCCCCC"/>
</g>
<path d="M32.51 3.15001C32.2786 3.49949 32.0248 3.83353 31.75 4.15001C31.0456 5.02104 30.2284 5.79449 29.32 6.45L29.21 6.67C29.2399 7.65245 29.1897 8.6357 29.06 9.61C28.7959 11.6672 28.2051 13.669 27.31 15.54C26.3919 17.4718 25.1659 19.2415 23.68 20.78C21.1922 23.3564 17.9925 25.1321 14.49 25.88C13.2687 26.1339 12.027 26.2778 10.78 26.31H10.15C6.61206 26.3202 3.14406 25.3248 0.149994 23.44L-0.0100098 23.34C0.511206 23.3996 1.03539 23.4297 1.56 23.43C4.55889 23.4381 7.47275 22.4339 9.82999 20.58C8.45061 20.5494 7.11552 20.0872 6.01239 19.2585C4.90926 18.4298 4.09357 17.2763 3.67999 15.96C4.08861 16.0391 4.5038 16.0793 4.91999 16.08C5.46231 16.081 6.0028 16.0172 6.52999 15.89H6.63C5.74243 15.7071 4.90264 15.3415 4.16406 14.8164C3.42549 14.2913 2.80429 13.6182 2.34 12.84C1.66931 11.7861 1.32169 10.559 1.34 9.31C2.2626 9.80904 3.29127 10.0799 4.34 10.1C2.95065 9.15247 1.97188 7.71373 1.60078 6.07349C1.22969 4.43325 1.49382 2.71331 2.34 1.26001C4.00235 3.31144 6.07757 4.99032 8.43091 6.18766C10.7842 7.385 13.3631 8.07403 16 8.21C16 7.94 15.93 7.71001 15.89 7.48001C15.7095 5.77967 16.181 4.07419 17.2093 2.70806C18.2376 1.34193 19.7461 0.416962 21.43 0.120003C21.8305 0.0581383 22.2348 0.0247228 22.64 0.0200043C23.5017 0.0275768 24.3531 0.208559 25.1434 0.552166C25.9337 0.895773 26.6467 1.39497 27.24 2.02C27.3068 2.08638 27.3959 2.12559 27.49 2.13H27.59C28.9522 1.84082 30.2612 1.34152 31.47 0.650005H31.56C31.0807 2.15669 30.0765 3.44126 28.73 4.27C30.0396 4.09101 31.3143 3.71334 32.51 3.15001Z" fill="white"/>
</g>
<defs>
<clipPath id="clip0_1_15">
<rect width="38.53" height="32.39" fill="white"/>
</clipPath>
</defs>
</svg>
