<svg width="38" height="38" viewBox="0 0 38 38" fill="none" xmlns="http://www.w3.org/2000/svg">
<g clip-path="url(#clip0_1_23)">
<g style="mix-blend-mode:multiply">
<path d="M14.0801 10.58C13.8468 10.644 13.6193 10.7276 13.4001 10.83C13.2718 10.8833 13.1481 10.9468 13.0301 11.02C12.8327 11.1242 12.6423 11.2411 12.4601 11.37C12.3414 11.4489 12.2309 11.5393 12.1301 11.64C11.9647 11.7771 11.8108 11.9277 11.6701 12.09C11.6101 12.15 11.5401 12.2 11.4901 12.26C11.4401 12.32 11.4101 12.39 11.3701 12.44L11.1401 12.78L10.9801 13.01C10.9801 13.1 10.8901 13.21 10.8401 13.3C10.7901 13.39 10.7601 13.47 10.7301 13.55C10.7001 13.63 10.7301 13.65 10.6601 13.69C10.5801 13.9167 10.5101 14.1467 10.4501 14.38C10.4549 14.4031 10.4549 14.4269 10.4501 14.45C10.4055 14.6682 10.3721 14.8884 10.3501 15.11C10.3501 15.21 10.3501 15.31 10.3501 15.42C10.3401 15.6099 10.3401 15.8001 10.3501 15.99C10.3501 16.1 10.3501 16.22 10.4101 16.33V16.55C10.4644 16.8226 10.5413 17.0902 10.6401 17.35V17.41L10.7001 17.55C10.8081 17.7828 10.9282 18.0098 11.0601 18.23L11.1801 18.41L11.2601 18.54C11.4126 18.739 11.5762 18.9293 11.7501 19.11L16.0901 23.37C15.8701 23.37 15.6501 23.37 15.4301 23.37C14.1144 23.3682 12.8195 23.0419 11.6601 22.42C10.9946 22.0513 10.3823 21.5938 9.84009 21.06L15.8401 27.06C16.567 27.82 17.4388 28.4266 18.4041 28.844C19.3694 29.2613 20.4085 29.481 21.4601 29.49C21.7508 29.4889 22.0412 29.4722 22.3301 29.44H22.6101C22.8015 29.4198 22.9918 29.3897 23.1801 29.35L23.5001 29.26L24.0001 29.12L24.3201 29L24.7801 28.81L25.0901 28.66L25.5301 28.41L25.8101 28.25L26.2501 27.93L26.4801 27.76C26.6601 27.62 26.8301 27.46 27.0001 27.3L27.0901 27.22C27.2901 27.02 27.4701 26.82 27.6501 26.61C27.653 26.5901 27.653 26.5699 27.6501 26.55C27.9171 26.237 28.1579 25.9025 28.3701 25.55C28.5335 25.2463 28.6772 24.9323 28.8001 24.61C28.8056 24.5735 28.8056 24.5365 28.8001 24.5C28.8001 24.5 28.8001 24.41 28.8501 24.37C28.9401 24.11 29.0201 23.84 29.0901 23.57C29.0937 23.5267 29.0937 23.4833 29.0901 23.44C29.1599 23.11 29.21 22.776 29.2401 22.44C29.2448 22.4102 29.2448 22.3798 29.2401 22.35C29.2401 22.16 29.2401 21.98 29.2401 21.79C29.2401 21.6 29.2401 21.25 29.2401 20.98C29.2079 20.6436 29.1545 20.3096 29.0801 19.98C29.0801 19.89 29.0301 19.8 29.0101 19.72C28.9486 19.4721 28.8718 19.2284 28.7801 18.99C28.7846 18.9401 28.7846 18.8899 28.7801 18.84C28.782 18.8167 28.782 18.7933 28.7801 18.77C28.6706 18.4777 28.5402 18.1937 28.3901 17.92L28.3001 17.77C28.1701 17.55 28.0301 17.33 27.8801 17.12L27.8101 17.01L27.7201 16.91C27.5164 16.6337 27.2924 16.373 27.0501 16.13L21.0501 10.13C21.2892 10.3725 21.5129 10.6297 21.7201 10.9C21.7701 10.97 21.8301 11.04 21.8801 11.12C22.0282 11.3258 22.1651 11.5394 22.2901 11.76L22.3801 11.91C22.5275 12.1865 22.6611 12.4702 22.7801 12.76C22.7801 12.83 22.8301 12.91 22.8601 12.98C22.9485 13.2185 23.0219 13.4623 23.0801 13.71C23.1081 13.7987 23.1315 13.8888 23.1501 13.98C23.2257 14.3094 23.2792 14.6435 23.3101 14.98C23.325 15.2498 23.325 15.5202 23.3101 15.79C23.3101 16 23.3101 16.21 23.3101 16.41L19.0501 12.13C18.6157 11.623 18.0857 11.2066 17.4903 10.9046C16.8949 10.6026 16.2457 10.421 15.5801 10.37H15.5301C15.1565 10.3726 14.7842 10.4162 14.4201 10.5C14.3001 10.5 14.2001 10.55 14.0801 10.58ZM17.4601 18.49C17.5501 18.37 17.6601 18.25 17.7601 18.14C17.9034 17.9801 18.057 17.8297 18.2201 17.69C18.3251 17.5941 18.4353 17.504 18.5501 17.42C18.7268 17.2881 18.9141 17.171 19.1101 17.07C19.2301 17 19.3401 16.93 19.4701 16.87C19.694 16.7736 19.9246 16.6934 20.1601 16.63L20.5001 16.52C20.8619 16.4439 21.2304 16.4037 21.6001 16.4C22.1854 16.4053 22.7649 16.5171 23.3101 16.73C23.3101 16.87 23.3101 17.02 23.2501 17.16V17.33C23.1853 17.601 23.1052 17.8681 23.0101 18.13L22.9201 18.38C22.7938 18.6992 22.6468 19.0099 22.4801 19.31V19.37C22.2615 19.7182 22.021 20.0522 21.7601 20.37L21.6901 20.46C21.5173 20.6726 21.3337 20.8762 21.1401 21.07L21.0501 21.15C20.8801 21.31 20.7101 21.47 20.5201 21.62L20.3001 21.78L19.8501 22.1L19.4601 22.37C19.3101 22.45 19.1601 22.54 19.0101 22.61L18.7101 22.76L18.2401 22.95L17.9201 23.07L17.4201 23.22L17.1101 23.3L16.6601 23.38C16.5704 23.1496 16.5002 22.9121 16.4501 22.67C16.4453 22.5967 16.4453 22.5233 16.4501 22.45C16.3982 22.1494 16.3715 21.845 16.3701 21.54C16.3779 21.2036 16.4181 20.8687 16.4901 20.54C16.4854 20.5203 16.4854 20.4997 16.4901 20.48C16.5528 20.1887 16.6432 19.9041 16.7601 19.63L16.8801 19.38C16.9669 19.2014 17.0637 19.0278 17.1701 18.86L17.4601 18.49Z" fill="#CCCCCC"/>
</g>
<g style="mix-blend-mode:multiply">
<path d="M8.51009 34.37C9.62141 35.4435 11.0043 36.1937 12.5101 36.54C15.3631 36.924 18.2426 37.0745 21.1201 36.99C23.9708 37.0329 26.8218 36.9193 29.6601 36.65C30.149 36.5735 30.6306 36.4564 31.1001 36.3C31.2501 36.3 31.3801 36.2 31.5201 36.15C31.82 36.0431 32.1138 35.9196 32.4001 35.78L32.8201 35.55C33.0801 35.39 33.3301 35.22 33.5701 35.04C33.6901 34.95 33.8101 34.87 33.9101 34.78C34.1989 34.5329 34.4665 34.2619 34.7101 33.97L34.8301 33.86C35.1041 33.5217 35.3483 33.1604 35.5601 32.78C35.6201 32.66 35.6701 32.53 35.7301 32.41C35.7901 32.29 35.9801 31.91 36.0801 31.64C36.1027 31.61 36.1196 31.5761 36.1301 31.54C36.2612 31.214 36.3715 30.88 36.4601 30.54L36.5201 30.33C36.5201 30.23 36.5201 30.1 36.5801 29.98C36.6401 29.86 36.5801 29.98 36.5801 29.92C36.6225 29.6918 36.6525 29.4615 36.6701 29.23V29.03C36.6701 28.8 36.6701 28.54 36.7401 28.28V28.16C36.7401 27.86 36.7401 27.54 36.8001 27.16C36.8001 27.06 36.8001 26.95 36.8001 26.84C36.8001 26.73 36.8001 26.35 36.8001 26.09C36.8001 25.83 36.8001 25.82 36.8001 25.69C36.8001 25.56 36.8001 25.18 36.8001 24.92C36.8001 24.66 36.8001 24.66 36.8001 24.52C36.8001 24.21 36.8001 23.9 36.8001 23.58C36.7951 23.5001 36.7951 23.4199 36.8001 23.34C36.8001 22.94 36.8001 22.54 36.8001 22.13V19.69C36.8001 19.56 36.8001 19.43 36.8001 19.3C36.8001 19 36.8001 18.71 36.8001 18.42V18.18C36.8001 17.81 36.8001 17.46 36.8001 17.12C36.8051 17.0534 36.8051 16.9866 36.8001 16.92C36.8001 16.65 36.8001 16.4 36.8001 16.15C36.8052 16.0568 36.8052 15.9633 36.8001 15.87C36.8001 15.67 36.8001 15.47 36.8001 15.29C36.8001 15.11 36.8001 15.12 36.8001 15.03C36.8001 14.94 36.8001 14.68 36.8001 14.52C36.8054 14.4635 36.8054 14.4066 36.8001 14.35C36.8001 14.16 36.8001 13.99 36.8001 13.86C36.7601 13.4078 36.6831 12.9597 36.5701 12.52C36.5701 12.38 36.4901 12.25 36.4501 12.11C36.4101 11.97 36.3301 11.66 36.2501 11.45C36.1701 11.24 36.1801 11.31 36.1501 11.23C36.1201 11.15 36.0401 11 35.9901 10.88C35.8509 10.5938 35.6939 10.3166 35.5201 10.05C35.4627 9.94636 35.3993 9.84618 35.3301 9.75002C35.3301 9.75002 35.2701 9.64003 35.2301 9.60003C35.002 9.28266 34.7478 8.98495 34.4701 8.71002L28.4701 2.71002C28.7821 3.01788 29.0665 3.35249 29.3201 3.71002L29.5201 4.01002C29.6928 4.27895 29.8465 4.55964 29.9801 4.85003C30.0416 4.95935 30.095 5.07298 30.1401 5.19002C30.2583 5.47791 30.3617 5.77162 30.4501 6.07002C30.4501 6.21002 30.5401 6.34002 30.5701 6.48002C30.6726 6.92186 30.7494 7.36927 30.8001 7.82002C30.8001 7.97002 30.8001 8.15003 30.8001 8.35003C30.8001 8.55002 30.8001 8.48002 30.8001 8.54002C30.8001 8.60002 30.8001 8.85003 30.8001 9.03003L26.4601 4.60003C25.6048 3.77708 24.5074 3.25116 23.3301 3.10002C20.7544 2.85465 18.167 2.75449 15.5801 2.80002C12.5001 2.80002 9.43008 2.89002 8.08008 3.03002C7.71823 3.07537 7.36048 3.14893 7.01009 3.25002L6.70009 3.35002C6.48009 3.43002 6.26008 3.51002 6.05008 3.61002L5.73009 3.78002C5.55009 3.89002 5.37009 4.00002 5.20009 4.12002L4.92009 4.34002C4.76026 4.47986 4.60991 4.63019 4.47008 4.79002L4.30008 4.96002L4.24008 5.05002C4.14879 5.1643 4.06527 5.28457 3.99008 5.41002C3.93008 5.50002 3.86008 5.59002 3.80008 5.69002V5.80002C3.75008 5.90002 3.71008 6.00002 3.66008 6.11002C3.60419 6.2104 3.55411 6.3139 3.51009 6.42002C3.51009 6.48002 3.51009 6.54003 3.51009 6.60003C3.51009 6.66003 3.43009 6.85002 3.40009 6.98002C3.36412 7.07133 3.33406 7.16486 3.31009 7.26002C3.31009 7.41002 3.25009 7.55002 3.23009 7.70002C3.21009 7.85002 3.17009 8.08002 3.15009 8.30002C3.13009 8.52002 3.15009 8.47002 3.15009 8.56002C3.15009 8.65002 3.15009 8.83002 3.15009 8.99002V9.06002C3.15009 9.13002 3.15009 9.22002 3.15009 9.30002C3.15009 9.38002 3.15009 9.69002 3.15009 9.90002C3.15009 10.11 3.15009 10.11 3.15009 10.22C3.15009 10.33 3.15009 10.63 3.15009 10.85C3.15009 11.07 3.15009 11.08 3.15009 11.21C3.15009 11.34 3.15009 11.67 3.15009 11.91C3.15009 12.15 3.15009 12.13 3.15009 12.24V13.31V13.51C3.15009 13.81 3.15009 14.12 3.15009 14.43V14.84C3.15009 15.08 3.15009 15.32 3.15009 15.56V17.13C3.15009 17.45 3.15009 17.76 3.15009 18.07V18.22C3.15009 18.58 3.15009 18.93 3.15009 19.27V19.54C3.15009 19.78 3.15009 20.02 3.15009 20.25C3.15009 20.48 3.15009 20.47 3.15009 20.57C3.15009 20.67 3.15009 20.97 3.15009 21.16C3.15009 21.35 3.15009 21.36 3.15009 21.45C3.15009 21.54 3.15009 21.83 3.15009 22.01C3.15534 22.0766 3.15534 22.1435 3.15009 22.21C3.15009 22.43 3.15009 22.63 3.15009 22.81C3.15009 23.02 3.15008 23.19 3.21008 23.33C3.273 23.7361 3.37686 24.1348 3.52008 24.52C3.52008 24.52 3.52008 24.62 3.52008 24.67C3.53619 24.7087 3.55629 24.7456 3.58008 24.78C3.72479 25.1352 3.91289 25.4711 4.14008 25.78C4.23095 25.9849 4.33796 26.1821 4.46008 26.37L8.87009 30.8C8.04729 30.7652 7.22829 30.6682 6.42009 30.51C6.02266 30.4075 5.63191 30.2806 5.25008 30.13C4.20791 29.7435 3.25772 29.1441 2.46008 28.37L8.51009 34.37ZM30.9001 9.55002C30.9001 9.63002 30.9001 9.70002 30.9001 9.77002C30.9001 9.84002 30.9001 9.98002 30.9001 10.09C30.9001 10.2 30.9001 10.55 30.9001 10.79C30.8951 10.8766 30.8951 10.9634 30.9001 11.05C30.9001 11.27 30.9001 11.51 30.9001 11.74L28.1601 9.00002C28.6301 9.00002 29.0401 9.07002 29.3301 9.11002C29.8716 9.19788 30.3994 9.35588 30.9001 9.58002V9.55002ZM24.6401 8.85003C24.6401 8.85003 24.5901 8.85002 24.5501 8.91002H24.4701C24.257 8.99665 24.03 9.04408 23.8001 9.05002C23.4948 9.03427 23.1972 8.94875 22.9301 8.80002L24.6401 8.85003ZM21.6401 8.85003H22.7801L28.5101 14.6C28.8547 14.9452 29.3223 15.1394 29.8101 15.14C30.0395 15.1384 30.2667 15.0943 30.4801 15.01H30.5701C30.7142 14.9435 30.8516 14.8632 30.9801 14.77V15.77C30.9801 15.9 30.9801 16.02 30.9801 16.15C30.9801 16.55 30.9801 16.95 30.9801 17.34V17.58C30.9801 17.9 30.9801 18.22 30.9801 18.53C30.9801 18.66 30.9801 18.79 30.9801 18.92V19.69C30.9801 19.82 30.9801 19.96 30.9801 20.08C30.9801 20.2 30.9801 20.6 30.9801 20.85C30.9801 20.95 30.9801 21.06 30.9801 21.16C30.9801 21.51 30.9801 21.83 30.9201 22.16C30.9201 22.16 30.9201 22.22 30.9201 22.25C30.9201 22.52 30.9201 22.77 30.8501 23.01C30.8501 23.07 30.8501 23.14 30.8501 23.2C30.8501 23.45 30.7901 23.69 30.7601 23.89C30.7554 23.9097 30.7554 23.9303 30.7601 23.95C30.7601 24.16 30.6801 24.36 30.6401 24.51C30.533 24.8963 30.4062 25.2768 30.2601 25.65C30.1501 25.91 30.0301 26.16 29.9101 26.41C29.7901 26.66 29.7801 26.7 29.7001 26.83C29.4858 27.2033 29.2451 27.5609 28.9801 27.9C28.9393 27.9458 28.8959 27.9892 28.8501 28.03C28.6039 28.3195 28.3365 28.5903 28.0501 28.84L27.7101 29.1C27.4729 29.2881 27.2222 29.4586 26.9601 29.61L26.5401 29.84C26.2501 29.98 25.9601 30.1 25.6501 30.22L25.2401 30.37C24.7687 30.5172 24.2875 30.6309 23.8001 30.71C20.9591 30.9892 18.1044 31.106 15.2501 31.06C13.2501 31.06 11.2501 31.06 9.68008 30.93C9.65109 30.845 9.61771 30.7616 9.58008 30.68C9.44271 30.293 9.339 29.8949 9.27008 29.49C9.27008 29.35 9.27008 29.17 9.21008 28.97C9.15008 28.77 9.21008 28.58 9.21008 28.35C9.20483 28.2835 9.20483 28.2166 9.21008 28.15C9.21008 27.98 9.21008 27.8 9.21008 27.6C9.21008 27.4 9.21008 27.4 9.21008 27.3C9.21008 27.2 9.21008 26.92 9.21008 26.72C9.21008 26.52 9.21008 26.5 9.21008 26.39C9.21008 26.28 9.21008 25.95 9.21008 25.72C9.21008 25.49 9.21008 25.51 9.21008 25.4C9.21008 25.07 9.21008 24.73 9.21008 24.4V22.79C9.21008 22.54 9.21008 22.29 9.21008 22.04V20.85C9.21008 20.73 9.21008 20.61 9.21008 20.49C9.21008 20.17 9.21008 19.86 9.21008 19.49V19.37C9.21008 19.0034 9.21008 18.6434 9.21008 18.29C9.21008 18.19 9.21008 18.1 9.21008 18C9.21008 17.75 9.21008 17.49 9.21008 17.25C9.21008 17.01 9.21008 17.03 9.21008 16.92V16.27C9.21008 16.17 9.21008 16.06 9.21008 15.96C9.21008 15.86 9.21008 15.54 9.21008 15.34C9.21008 15.14 9.21008 15.19 9.21008 15.12C9.21008 15.05 9.21008 14.77 9.21008 14.6C9.21461 14.5201 9.21461 14.44 9.21008 14.36C9.21008 14.13 9.21008 13.93 9.29008 13.76C9.37008 13.59 9.40008 13.27 9.46008 13.03C9.52008 12.79 9.53008 12.78 9.57008 12.66C9.61008 12.54 9.70008 12.32 9.77008 12.16L9.92009 11.85C9.99009 11.72 10.0801 11.59 10.1601 11.46C10.2401 11.33 10.3101 11.22 10.4001 11.1C10.4901 10.98 10.5501 10.94 10.6301 10.85C10.7699 10.6902 10.9202 10.5399 11.0801 10.4C11.1724 10.3212 11.2693 10.2477 11.3701 10.18C11.5332 10.0518 11.7072 9.93807 11.8901 9.84002L12.2201 9.67002C12.4283 9.57136 12.642 9.48455 12.8601 9.41002L13.1801 9.30002C13.5273 9.20226 13.8818 9.13204 14.2401 9.09002C15.4601 8.94002 18.5601 8.85003 21.6501 8.85003H21.6401Z" fill="#CCCCCC"/>
</g>
<path d="M23.81 5.37C24.053 5.3713 24.2933 5.42046 24.5172 5.51464C24.7412 5.60882 24.9444 5.74619 25.1153 5.91891C25.2861 6.09162 25.4213 6.29631 25.513 6.52126C25.6048 6.74622 25.6514 6.98705 25.65 7.23C25.6422 7.72431 25.441 8.19588 25.0895 8.54358C24.7381 8.89128 24.2644 9.08744 23.77 9.09C23.2767 9.09 22.8036 8.89403 22.4548 8.54521C22.106 8.19639 21.91 7.7233 21.91 7.23C21.91 6.73669 22.106 6.2636 22.4548 5.91478C22.8036 5.56596 23.2767 5.37 23.77 5.37H23.81Z" fill="white"/>
<path d="M30.8 7.77001C31.03 10.21 31.18 21.77 30.46 24.43C30.1112 26.0488 29.2637 27.5175 28.0368 28.6297C26.8099 29.7418 25.2652 30.4414 23.62 30.63C20.779 30.9091 17.9244 31.026 15.07 30.98C12.1923 31.0622 9.31265 30.9084 6.46004 30.52C4.84986 30.1884 3.38586 29.3559 2.27759 28.1417C1.16933 26.9274 0.473621 25.3937 0.290043 23.76C-0.119957 21.15 -0.169954 9.01001 0.590046 6.37001C0.964508 4.79862 1.81285 3.38028 3.02021 2.30708C4.22756 1.23387 5.73559 0.557656 7.34005 0.370009C9.91644 0.0858477 12.5085 -0.0310624 15.1 0.0200103C18 0.0200103 20.91 0.100009 22.67 0.190009C24.7787 0.237001 26.7951 1.06352 28.33 2.51001C29.7694 3.90194 30.6482 5.77347 30.8 7.77001ZM27.8 23.25C28.2072 18.1901 28.2707 13.1085 27.99 8.04001C27.935 6.79785 27.4366 5.61654 26.5854 4.71025C25.7341 3.80396 24.5863 3.23269 23.35 3.10001C20.7744 2.85464 18.187 2.75448 15.6 2.80001C12.52 2.80001 9.45004 2.89001 8.10004 3.03001C6.85868 3.10553 5.68321 3.61438 4.7786 4.46782C3.87399 5.32126 3.29764 6.46515 3.15004 7.70001C2.73067 12.9138 2.70059 18.1517 3.06005 23.37C3.161 24.4071 3.58343 25.3867 4.26831 26.172C4.9532 26.9573 5.86631 27.509 6.88004 27.75C9.64123 28.1471 12.4319 28.301 15.22 28.21C18.47 28.21 21.66 28.1 22.86 27.97C24.1146 27.9091 25.3065 27.4038 26.2226 26.5445C27.1386 25.6853 27.7191 24.5281 27.86 23.28" fill="white"/>
<path d="M15.56 7.55001C16.6024 7.54733 17.635 7.75149 18.5979 8.15068C19.5609 8.54988 20.4351 9.13617 21.1699 9.87559C21.9046 10.615 22.4854 11.4929 22.8785 12.4583C23.2716 13.4238 23.4693 14.4576 23.46 15.5C23.4442 17.6113 22.5943 19.6308 21.0957 21.1181C19.5972 22.6055 17.5714 23.4401 15.46 23.44C14.4185 23.4427 13.3869 23.2384 12.425 22.839C11.4631 22.4396 10.5903 21.853 9.8571 21.1133C9.12392 20.3736 8.54504 19.4955 8.15413 18.5302C7.76321 17.5648 7.56805 16.5314 7.57998 15.49C7.59579 13.3822 8.44288 11.3657 9.93715 9.87894C11.4314 8.39217 13.4521 7.55522 15.56 7.55001ZM15.46 20.63C16.8184 20.6302 18.1225 20.0968 19.0914 19.1448C20.0602 18.1927 20.6164 16.8982 20.64 15.54C20.6546 14.8704 20.5366 14.2045 20.2928 13.5806C20.0491 12.9567 19.6843 12.3872 19.2196 11.9049C18.7549 11.4225 18.1994 11.0368 17.5851 10.77C16.9707 10.5031 16.3097 10.3604 15.64 10.35H15.59C14.2316 10.3498 12.9275 10.8832 11.9586 11.8352C10.9897 12.7873 10.4336 14.0818 10.41 15.44C10.3967 16.1135 10.5173 16.7828 10.7646 17.4093C11.012 18.0359 11.3812 18.607 11.851 19.0898C12.3207 19.5726 12.8816 19.9573 13.5011 20.2217C14.1206 20.486 14.7864 20.6249 15.46 20.63Z" fill="white"/>
</g>
<defs>
<clipPath id="clip0_1_23">
<rect width="37.02" height="37.03" fill="white"/>
</clipPath>
</defs>
</svg>
