<svg width="755" height="34" viewBox="0 0 755 34" fill="none" xmlns="http://www.w3.org/2000/svg">
<path d="M34.8359 5.19531H4.83594V34H0.03125V0.390625H34.8359V5.19531ZM30.7109 19.6094H7.22656V14.8047H30.7109V19.6094ZM77.4219 34H72.6172V24.3906H45.8047V19.6094H72.6172V5.19531H55.3906C53.75 5.19531 52.2031 5.51562 50.75 6.15625C49.2969 6.78125 48.0312 7.64062 46.9531 8.73438C45.875 9.8125 45.0156 11.0781 44.375 12.5312C43.75 13.9844 43.4375 15.5391 43.4375 17.1953V34H38.6328V17.1953C38.6328 15.6484 38.8281 14.1641 39.2188 12.7422C39.625 11.3047 40.1875 9.96875 40.9062 8.73438C41.6406 7.48438 42.5156 6.35156 43.5312 5.33594C44.5625 4.30469 45.6953 3.42187 46.9297 2.6875C48.1797 1.95313 49.5156 1.39063 50.9375 1C52.3594 0.59375 53.8438 0.390625 55.3906 0.390625H77.4219V34ZM122.586 24.3906C122.586 25.7344 122.336 26.9922 121.836 28.1641C121.336 29.3203 120.648 30.3359 119.773 31.2109C118.914 32.0703 117.898 32.75 116.727 33.25C115.57 33.75 114.328 34 113 34H83.7969V29.1953H113C113.672 29.1953 114.297 29.0703 114.875 28.8203C115.453 28.5703 115.953 28.2266 116.375 27.7891C116.812 27.3516 117.156 26.8438 117.406 26.2656C117.656 25.6719 117.781 25.0469 117.781 24.3906C117.781 23.7344 117.656 23.1172 117.406 22.5391C117.156 21.9609 116.812 21.4531 116.375 21.0156C115.953 20.5781 115.453 20.2344 114.875 19.9844C114.297 19.7344 113.672 19.6094 113 19.6094H93.4062C92.0938 19.6094 90.8516 19.3594 89.6797 18.8594C88.5078 18.3594 87.4844 17.6797 86.6094 16.8203C85.75 15.9453 85.0625 14.9219 84.5469 13.75C84.0469 12.5781 83.7969 11.3281 83.7969 10C83.7969 8.6875 84.0469 7.44531 84.5469 6.27344C85.0625 5.10156 85.75 4.08594 86.6094 3.22656C87.4844 2.35156 88.5078 1.66406 89.6797 1.16406C90.8516 0.648438 92.0938 0.390625 93.4062 0.390625H120.195V5.19531H93.4062C92.75 5.19531 92.125 5.32031 91.5312 5.57031C90.9531 5.82031 90.4453 6.16406 90.0078 6.60156C89.5703 7.03906 89.2266 7.55469 88.9766 8.14844C88.7266 8.72656 88.6016 9.34375 88.6016 10C88.6016 10.6562 88.7266 11.2812 88.9766 11.875C89.2266 12.4531 89.5703 12.9609 90.0078 13.3984C90.4453 13.8359 90.9531 14.1797 91.5312 14.4297C92.125 14.6797 92.75 14.8047 93.4062 14.8047H113C114.328 14.8047 115.57 15.0625 116.727 15.5781C117.898 16.0781 118.914 16.7656 119.773 17.6406C120.648 18.5 121.336 19.5156 121.836 20.6875C122.336 21.8438 122.586 23.0781 122.586 24.3906ZM163.719 34H158.914V19.6094H135.43V14.8047H158.914V0.390625H163.719V34ZM133.039 34H128.234V0.390625H133.039V34ZM176.586 34H171.781V0.390625H176.586V34ZM224.797 17.1953C224.797 19.5234 224.43 21.7109 223.695 23.7578C222.961 25.8047 221.914 27.5859 220.555 29.1016C219.211 30.6172 217.594 31.8125 215.703 32.6875C213.812 33.5625 211.711 34 209.398 34H198.219C195.891 34 193.773 33.5625 191.867 32.6875C189.961 31.8125 188.328 30.6172 186.969 29.1016C185.625 27.5859 184.586 25.8047 183.852 23.7578C183.117 21.7109 182.75 19.5234 182.75 17.1953C182.75 14.8828 183.117 12.7109 183.852 10.6797C184.586 8.63281 185.625 6.85156 186.969 5.33594C188.328 3.80469 189.961 2.60156 191.867 1.72656C193.773 0.835938 195.891 0.390625 198.219 0.390625H209.398C211.711 0.390625 213.812 0.835938 215.703 1.72656C217.594 2.60156 219.211 3.80469 220.555 5.33594C221.914 6.85156 222.961 8.63281 223.695 10.6797C224.43 12.7109 224.797 14.8828 224.797 17.1953ZM219.992 17.1953C219.992 15.5391 219.75 13.9844 219.266 12.5312C218.781 11.0781 218.078 9.8125 217.156 8.73438C216.25 7.64062 215.141 6.78125 213.828 6.15625C212.531 5.51562 211.055 5.19531 209.398 5.19531H198.219C196.562 5.19531 195.07 5.51562 193.742 6.15625C192.43 6.78125 191.312 7.64062 190.391 8.73438C189.484 9.8125 188.781 11.0781 188.281 12.5312C187.797 13.9844 187.555 15.5391 187.555 17.1953C187.555 18.8516 187.797 20.4141 188.281 21.8828C188.781 23.3359 189.484 24.6094 190.391 25.7031C191.312 26.7812 192.43 27.6328 193.742 28.2578C195.07 28.8828 196.562 29.1953 198.219 29.1953H209.398C211.055 29.1953 212.531 28.8828 213.828 28.2578C215.141 27.6328 216.25 26.7812 217.156 25.7031C218.078 24.6094 218.781 23.3359 219.266 21.8828C219.75 20.4141 219.992 18.8516 219.992 17.1953ZM235.742 34H230.938V0.390625H233.328C234.891 0.390625 236.547 0.59375 238.297 1C240.062 1.40625 241.859 1.99219 243.688 2.75781C245.516 3.52344 247.336 4.45312 249.148 5.54688C250.977 6.625 252.742 7.85156 254.445 9.22656C256.148 10.6016 257.75 12.1016 259.25 13.7266C260.75 15.3359 262.094 17.0547 263.281 18.8828V0.390625H268.086V34H263.281C263.281 31.5312 262.852 29.1562 261.992 26.875C261.133 24.5781 259.984 22.4141 258.547 20.3828C257.109 18.3516 255.453 16.4844 253.578 14.7812C251.703 13.0625 249.742 11.5547 247.695 10.2578C245.664 8.96094 243.617 7.89844 241.555 7.07031C239.492 6.22656 237.555 5.66406 235.742 5.38281V34ZM328.977 5.19531H298.977V34H294.172V0.390625H328.977V5.19531ZM324.852 19.6094H301.367V14.8047H324.852V19.6094ZM369.828 0.390625L369.781 17.1953C369.781 18.7578 369.578 20.2578 369.172 21.6953C368.781 23.1172 368.219 24.4531 367.484 25.7031C366.766 26.9375 365.891 28.0703 364.859 29.1016C363.844 30.1172 362.711 30.9922 361.461 31.7266C360.227 32.4453 358.898 33.0078 357.477 33.4141C356.055 33.8047 354.57 34 353.023 34H349.484C347.938 34 346.445 33.8047 345.008 33.4141C343.586 33.0078 342.25 32.4375 341 31.7031C339.766 30.9688 338.641 30.0938 337.625 29.0781C336.609 28.0469 335.734 26.9141 335 25.6797C334.281 24.4297 333.719 23.0938 333.312 21.6719C332.922 20.2344 332.727 18.7422 332.727 17.1953V0.390625H337.531V17.1953C337.531 18.8516 337.844 20.4141 338.469 21.8828C339.094 23.3359 339.945 24.6094 341.023 25.7031C342.117 26.7812 343.391 27.6328 344.844 28.2578C346.297 28.8828 347.844 29.1953 349.484 29.1953H353.023C354.68 29.1953 356.234 28.8828 357.688 28.2578C359.141 27.6328 360.406 26.7812 361.484 25.7031C362.562 24.6094 363.414 23.3359 364.039 21.8828C364.664 20.4141 364.977 18.8516 364.977 17.1953V0.390625H369.781H369.828ZM413.867 24.3906C413.867 25.7344 413.617 26.9922 413.117 28.1641C412.617 29.3203 411.93 30.3359 411.055 31.2109C410.195 32.0703 409.18 32.75 408.008 33.25C406.852 33.75 405.609 34 404.281 34H375.078V29.1953H404.281C404.953 29.1953 405.578 29.0703 406.156 28.8203C406.734 28.5703 407.234 28.2266 407.656 27.7891C408.094 27.3516 408.438 26.8438 408.688 26.2656C408.938 25.6719 409.062 25.0469 409.062 24.3906C409.062 23.7344 408.938 23.1172 408.688 22.5391C408.438 21.9609 408.094 21.4531 407.656 21.0156C407.234 20.5781 406.734 20.2344 406.156 19.9844C405.578 19.7344 404.953 19.6094 404.281 19.6094H384.688C383.375 19.6094 382.133 19.3594 380.961 18.8594C379.789 18.3594 378.766 17.6797 377.891 16.8203C377.031 15.9453 376.344 14.9219 375.828 13.75C375.328 12.5781 375.078 11.3281 375.078 10C375.078 8.6875 375.328 7.44531 375.828 6.27344C376.344 5.10156 377.031 4.08594 377.891 3.22656C378.766 2.35156 379.789 1.66406 380.961 1.16406C382.133 0.648438 383.375 0.390625 384.688 0.390625H411.477V5.19531H384.688C384.031 5.19531 383.406 5.32031 382.812 5.57031C382.234 5.82031 381.727 6.16406 381.289 6.60156C380.852 7.03906 380.508 7.55469 380.258 8.14844C380.008 8.72656 379.883 9.34375 379.883 10C379.883 10.6562 380.008 11.2812 380.258 11.875C380.508 12.4531 380.852 12.9609 381.289 13.3984C381.727 13.8359 382.234 14.1797 382.812 14.4297C383.406 14.6797 384.031 14.8047 384.688 14.8047H404.281C405.609 14.8047 406.852 15.0625 408.008 15.5781C409.18 16.0781 410.195 16.7656 411.055 17.6406C411.93 18.5 412.617 19.5156 413.117 20.6875C413.617 21.8438 413.867 23.0781 413.867 24.3906ZM424.32 34H419.516V0.390625H424.32V34ZM472.531 17.1953C472.531 19.5234 472.164 21.7109 471.43 23.7578C470.695 25.8047 469.648 27.5859 468.289 29.1016C466.945 30.6172 465.328 31.8125 463.438 32.6875C461.547 33.5625 459.445 34 457.133 34H445.953C443.625 34 441.508 33.5625 439.602 32.6875C437.695 31.8125 436.062 30.6172 434.703 29.1016C433.359 27.5859 432.32 25.8047 431.586 23.7578C430.852 21.7109 430.484 19.5234 430.484 17.1953C430.484 14.8828 430.852 12.7109 431.586 10.6797C432.32 8.63281 433.359 6.85156 434.703 5.33594C436.062 3.80469 437.695 2.60156 439.602 1.72656C441.508 0.835938 443.625 0.390625 445.953 0.390625H457.133C459.445 0.390625 461.547 0.835938 463.438 1.72656C465.328 2.60156 466.945 3.80469 468.289 5.33594C469.648 6.85156 470.695 8.63281 471.43 10.6797C472.164 12.7109 472.531 14.8828 472.531 17.1953ZM467.727 17.1953C467.727 15.5391 467.484 13.9844 467 12.5312C466.516 11.0781 465.812 9.8125 464.891 8.73438C463.984 7.64062 462.875 6.78125 461.562 6.15625C460.266 5.51562 458.789 5.19531 457.133 5.19531H445.953C444.297 5.19531 442.805 5.51562 441.477 6.15625C440.164 6.78125 439.047 7.64062 438.125 8.73438C437.219 9.8125 436.516 11.0781 436.016 12.5312C435.531 13.9844 435.289 15.5391 435.289 17.1953C435.289 18.8516 435.531 20.4141 436.016 21.8828C436.516 23.3359 437.219 24.6094 438.125 25.7031C439.047 26.7812 440.164 27.6328 441.477 28.2578C442.805 28.8828 444.297 29.1953 445.953 29.1953H457.133C458.789 29.1953 460.266 28.8828 461.562 28.2578C462.875 27.6328 463.984 26.7812 464.891 25.7031C465.812 24.6094 466.516 23.3359 467 21.8828C467.484 20.4141 467.727 18.8516 467.727 17.1953ZM483.477 34H478.672V0.390625H481.062C482.625 0.390625 484.281 0.59375 486.031 1C487.797 1.40625 489.594 1.99219 491.422 2.75781C493.25 3.52344 495.07 4.45312 496.883 5.54688C498.711 6.625 500.477 7.85156 502.18 9.22656C503.883 10.6016 505.484 12.1016 506.984 13.7266C508.484 15.3359 509.828 17.0547 511.016 18.8828V0.390625H515.82V34H511.016C511.016 31.5312 510.586 29.1562 509.727 26.875C508.867 24.5781 507.719 22.4141 506.281 20.3828C504.844 18.3516 503.188 16.4844 501.312 14.7812C499.438 13.0625 497.477 11.5547 495.43 10.2578C493.398 8.96094 491.352 7.89844 489.289 7.07031C487.227 6.22656 485.289 5.66406 483.477 5.38281V34ZM576.711 5.19531H546.711V34H541.906V0.390625H576.711V5.19531ZM572.586 19.6094H549.102V14.8047H572.586V19.6094ZM586.367 34H581.562V0.390625H586.367V34ZM629.211 34H594.453V0.390625H629.211V5.19531H599.258V29.1953H629.211V34ZM625.133 19.6094H601.648V14.8047H625.133V19.6094ZM672.289 24.3906C672.289 25.7344 672.039 26.9922 671.539 28.1641C671.039 29.3203 670.352 30.3359 669.477 31.2109C668.617 32.0703 667.602 32.75 666.43 33.25C665.273 33.75 664.031 34 662.703 34H633.5V29.1953H662.703C663.375 29.1953 664 29.0703 664.578 28.8203C665.156 28.5703 665.656 28.2266 666.078 27.7891C666.516 27.3516 666.859 26.8438 667.109 26.2656C667.359 25.6719 667.484 25.0469 667.484 24.3906C667.484 23.7344 667.359 23.1172 667.109 22.5391C666.859 21.9609 666.516 21.4531 666.078 21.0156C665.656 20.5781 665.156 20.2344 664.578 19.9844C664 19.7344 663.375 19.6094 662.703 19.6094H643.109C641.797 19.6094 640.555 19.3594 639.383 18.8594C638.211 18.3594 637.188 17.6797 636.312 16.8203C635.453 15.9453 634.766 14.9219 634.25 13.75C633.75 12.5781 633.5 11.3281 633.5 10C633.5 8.6875 633.75 7.44531 634.25 6.27344C634.766 5.10156 635.453 4.08594 636.312 3.22656C637.188 2.35156 638.211 1.66406 639.383 1.16406C640.555 0.648438 641.797 0.390625 643.109 0.390625H669.898V5.19531H643.109C642.453 5.19531 641.828 5.32031 641.234 5.57031C640.656 5.82031 640.148 6.16406 639.711 6.60156C639.273 7.03906 638.93 7.55469 638.68 8.14844C638.43 8.72656 638.305 9.34375 638.305 10C638.305 10.6562 638.43 11.2812 638.68 11.875C638.93 12.4531 639.273 12.9609 639.711 13.3984C640.148 13.8359 640.656 14.1797 641.234 14.4297C641.828 14.6797 642.453 14.8047 643.109 14.8047H662.703C664.031 14.8047 665.273 15.0625 666.43 15.5781C667.602 16.0781 668.617 16.7656 669.477 17.6406C670.352 18.5 671.039 19.5156 671.539 20.6875C672.039 21.8438 672.289 23.0781 672.289 24.3906ZM696.172 34H691.367V5.19531H674.375V0.390625H713.164V5.19531H696.172V34ZM754.906 34H750.102V24.3906H723.289V19.6094H750.102V5.19531H732.875C731.234 5.19531 729.688 5.51562 728.234 6.15625C726.781 6.78125 725.516 7.64062 724.438 8.73438C723.359 9.8125 722.5 11.0781 721.859 12.5312C721.234 13.9844 720.922 15.5391 720.922 17.1953V34H716.117V17.1953C716.117 15.6484 716.312 14.1641 716.703 12.7422C717.109 11.3047 717.672 9.96875 718.391 8.73438C719.125 7.48438 720 6.35156 721.016 5.33594C722.047 4.30469 723.18 3.42187 724.414 2.6875C725.664 1.95313 727 1.39063 728.422 1C729.844 0.59375 731.328 0.390625 732.875 0.390625H754.906V34Z" fill="white"/>
</svg>
