<svg width="39" height="29" viewBox="0 0 39 29" fill="none" xmlns="http://www.w3.org/2000/svg">
<g clip-path="url(#clip0_1_31)">
<g style="mix-blend-mode:multiply">
<path d="M28.0399 16.89L22.0399 10.89L12.1399 5.71002C12.1399 9.16002 12.0799 12.59 12.0599 16.06L18.0599 22.06C18.0599 18.59 18.0599 15.17 18.1399 11.71L28.0399 16.89Z" fill="#CCCCCC"/>
</g>
<g style="mix-blend-mode:multiply">
<path d="M37.9799 18.7C37.9799 18.06 37.9799 17.41 37.9799 16.77V16.42C37.9799 15.79 37.9799 15.17 37.9799 14.57C37.9799 14.45 37.9799 14.33 37.9799 14.21C37.9799 13.6 37.9199 13 37.8699 12.44L37.8099 11.82C37.8099 11.68 37.8099 11.54 37.8099 11.41C37.8099 11.28 37.7499 10.97 37.7099 10.76C37.6699 10.55 37.7099 10.55 37.7099 10.46C37.7099 10.37 37.6299 10.06 37.5899 9.88004C37.5499 9.70004 37.5899 9.71003 37.5899 9.64003C37.5199 9.39003 37.4599 9.17004 37.3899 8.99004C37.3899 8.99004 37.3899 8.93002 37.3399 8.90002C37.233 8.63998 37.0989 8.39196 36.9399 8.16003L36.8799 8.06003C36.775 7.91978 36.6614 7.7862 36.5399 7.66003L30.5399 1.66003C30.6861 1.80983 30.8167 1.97398 30.9299 2.15002C31.0906 2.38091 31.2248 2.62914 31.3299 2.89003C31.3299 2.94003 31.3799 2.98003 31.3999 3.03003C31.4782 3.24296 31.5449 3.45993 31.5999 3.68002L31.6599 3.97003C31.6599 4.14003 31.7399 4.31003 31.7699 4.50003C31.7999 4.69003 31.7699 4.73003 31.8299 4.84003C31.8899 4.95003 31.8899 5.23003 31.9199 5.45003C31.9499 5.67003 31.9199 5.73003 31.9199 5.86003C31.9199 5.99003 31.9699 6.28003 31.9899 6.51003C31.9899 7.07002 32.0799 7.67002 32.1099 8.29002C32.1099 8.40002 32.1099 8.52003 32.1099 8.64003C32.1099 9.24003 32.1099 9.87003 32.1099 10.5V10.84C32.1099 11.48 32.1099 12.13 32.1099 12.76V12.83C32.1099 13.48 32.0499 14.11 32.0099 14.72C32.0099 14.87 32.0099 15.03 32.0099 15.18V15.59C32.0099 15.83 31.9599 16.06 31.9299 16.28C31.8999 16.5 31.9299 16.54 31.9299 16.67C31.9299 16.8 31.8699 17.12 31.8299 17.34C31.8189 17.4475 31.8022 17.5543 31.7799 17.66C31.7799 17.95 31.6799 18.23 31.6299 18.49C31.6238 18.5061 31.6238 18.5239 31.6299 18.54C31.5699 18.8 31.4999 19.03 31.4399 19.25L31.3799 19.43C31.3228 19.6148 31.2527 19.7952 31.1699 19.97C31.1052 20.1067 31.0282 20.2373 30.9399 20.36C30.8925 20.447 30.839 20.5305 30.7799 20.61C30.7286 20.678 30.6717 20.7415 30.6099 20.8C30.4909 20.9341 30.364 21.061 30.2299 21.18L30.0599 21.32C29.8616 21.4739 29.6509 21.611 29.4299 21.73C28.3499 22.29 22.0899 22.55 15.9499 22.55C10.2999 22.55 4.75992 22.33 3.45992 21.9C2.8758 21.7196 2.34401 21.4005 1.90991 20.97L7.90991 26.97C8.34226 27.4028 8.87464 27.7222 9.45992 27.9C10.7499 28.32 16.2899 28.55 21.9399 28.55C28.0799 28.55 34.3399 28.28 35.4199 27.73C35.6401 27.6097 35.8508 27.4727 36.0499 27.32L36.2199 27.18C36.3572 27.061 36.4874 26.9342 36.6099 26.8L36.7099 26.7L36.7699 26.61L36.9399 26.36L37.0599 26.19L36.9799 25.89C36.9799 25.79 37.0699 25.68 37.1099 25.57C37.1378 25.4982 37.1611 25.4247 37.1799 25.35L37.2399 25.17C37.3099 24.95 37.3699 24.72 37.4299 24.46C37.4299 24.46 37.4299 24.46 37.4299 24.4C37.4899 24.15 37.5399 23.87 37.5899 23.58C37.5899 23.47 37.5899 23.36 37.6399 23.26L37.7299 22.59C37.7299 22.46 37.7299 22.33 37.7299 22.2C37.7299 22.07 37.7799 21.74 37.7999 21.51C37.8199 21.28 37.7999 21.23 37.7999 21.09C37.795 21.0134 37.795 20.9366 37.7999 20.86C37.7999 20.79 37.7999 20.71 37.7999 20.64C37.7999 20.02 37.8799 19.39 37.8999 18.75L37.9799 18.7Z" fill="#CCCCCC"/>
</g>
<path d="M31.21 2.89001C32.36 5.89001 32.31 16.89 30.93 19.83C30.5595 20.5922 29.9479 21.2108 29.19 21.59C28.11 22.15 21.85 22.41 15.71 22.41C10.06 22.41 4.51998 22.19 3.21998 21.76C2.65078 21.5877 2.13166 21.2805 1.70681 20.8643C1.28197 20.4482 0.963996 19.9355 0.77998 19.37C-0.22002 16.45 -0.490017 4.21001 1.57998 1.79001C2.25641 0.984636 3.2228 0.478092 4.26997 0.38002C6.72997 0.11002 11.48 -0.019989 16.16 -0.019989C22 -0.019989 27.73 0.180007 28.82 0.570007C29.3691 0.748498 29.87 1.05042 30.2843 1.45258C30.6986 1.85474 31.0152 2.34646 31.21 2.89001ZM12.04 16.03C15.36 14.3 18.67 12.59 22.04 10.86L12.14 5.68001C12.14 9.13001 12.08 12.56 12.06 16.03" fill="white"/>
</g>
<defs>
<clipPath id="clip0_1_31">
<rect width="38.04" height="28.48" fill="white"/>
</clipPath>
</defs>
</svg>
