<svg width="897" height="68" viewBox="0 0 897 68" fill="none" xmlns="http://www.w3.org/2000/svg"><path d="M77.64 68H64.657L44.5 48.781H15.062v-9.468h38.579c2 0 3.875-.376 5.625-1.126a14.594 14.594 0 0 0 4.547-3.14 14.514 14.514 0 0 0 3.093-4.594 14.466 14.466 0 0 0 1.125-5.672c0-2-.375-3.875-1.125-5.625a13.969 13.969 0 0 0-3.094-4.547 13.97 13.97 0 0 0-4.546-3.093c-1.75-.75-3.625-1.125-5.625-1.125H9.67V68H.064V.781H53.64c3.312 0 6.422.64 9.328 1.922 2.906 1.25 5.437 2.969 7.593 5.156 2.188 2.157 3.907 4.688 5.157 7.594C77 18.36 77.64 21.47 77.64 24.781c0 3-.516 5.844-1.547 8.532a24.79 24.79 0 0 1-4.266 7.171 24.38 24.38 0 0 1-6.422 5.25c-2.437 1.375-5.078 2.297-7.922 2.766L77.641 68ZM233.97.781l-.094 33.61c0 3.125-.406 6.125-1.219 9a32.995 32.995 0 0 1-3.375 8.015 33.195 33.195 0 0 1-5.25 6.797 33.729 33.729 0 0 1-6.797 5.25 34.715 34.715 0 0 1-7.968 3.375c-2.844.781-5.813 1.172-8.907 1.172h-7.078c-3.093 0-6.078-.39-8.953-1.172a34.418 34.418 0 0 1-8.016-3.422 34.38 34.38 0 0 1-6.75-5.25 35.6 35.6 0 0 1-5.25-6.797 35.67 35.67 0 0 1-3.374-8.015 33.963 33.963 0 0 1-1.172-8.953V.78h9.609v33.61c0 3.312.625 6.437 1.875 9.375 1.25 2.906 2.953 5.453 5.109 7.64 2.188 2.157 4.735 3.86 7.641 5.11 2.906 1.25 6 1.875 9.281 1.875h7.078c3.313 0 6.422-.625 9.329-1.875 2.906-1.25 5.437-2.953 7.593-5.11 2.157-2.187 3.86-4.734 5.11-7.64 1.25-2.938 1.875-6.063 1.875-9.375V.78h9.703ZM329.453 68h-9.609V.781h4.781c3.125 0 6.437.406 9.937 1.219 3.532.813 7.126 1.984 10.782 3.516 3.656 1.53 7.297 3.39 10.922 5.578a88.098 88.098 0 0 1 10.593 7.36 89.965 89.965 0 0 1 9.61 9c3 3.218 5.687 6.655 8.062 10.312V.78h9.61V68h-9.61c0-4.938-.859-9.688-2.578-14.25a56.904 56.904 0 0 0-6.891-12.984 68.733 68.733 0 0 0-9.937-11.203c-3.75-3.438-7.672-6.454-11.766-9.047-4.062-2.594-8.156-4.72-12.281-6.375-4.125-1.688-8-2.813-11.625-3.375V68Zm239.438-24.188c0 3.344-.641 6.485-1.922 9.422-1.25 2.938-2.969 5.5-5.157 7.688-2.187 2.187-4.75 3.922-7.687 5.203-2.937 1.25-6.078 1.875-9.422 1.875-2 0-3.937-.219-5.812-.656a26.966 26.966 0 0 1-5.25-1.922A25.289 25.289 0 0 1 529 62.375a25.478 25.478 0 0 1-3.797-3.984c-2.219 2.937-5 5.28-8.344 7.03-3.343 1.72-7.015 2.579-11.015 2.579-3.344 0-6.485-.625-9.422-1.875-2.938-1.281-5.5-3.016-7.688-5.203-2.187-2.188-3.922-4.75-5.203-7.688-1.25-2.937-1.875-6.078-1.875-9.422V.782h9.563v43.03c0 2.032.375 3.938 1.125 5.72a15.189 15.189 0 0 0 3.14 4.593 15.805 15.805 0 0 0 4.641 3.14c1.781.75 3.687 1.126 5.719 1.126 1.968 0 3.812-.36 5.531-1.078 1.75-.72 3.266-1.704 4.547-2.954a14.346 14.346 0 0 0 3.14-4.406 14.32 14.32 0 0 0 1.36-5.484V.782h9.703v43.03c0 2.032.375 3.938 1.125 5.72a15.174 15.174 0 0 0 3.141 4.593 15.175 15.175 0 0 0 4.593 3.14c1.782.75 3.688 1.126 5.719 1.126 2 0 3.891-.375 5.672-1.125 1.781-.782 3.328-1.828 4.641-3.141a14.152 14.152 0 0 0 3.14-4.594c.782-1.781 1.172-3.687 1.172-5.718V.78h9.563v43.032ZM732.812 68h-9.609V48.781h-53.625V39.22h53.625V10.39H688.75c-3.281 0-6.375.64-9.281 1.921-2.907 1.25-5.438 2.97-7.594 5.157-2.156 2.156-3.875 4.687-5.156 7.593-1.25 2.907-1.875 6.016-1.875 9.329V68h-9.61V34.39c0-3.093.391-6.062 1.172-8.906.813-2.875 1.938-5.547 3.375-8.015a33.756 33.756 0 0 1 5.25-6.797 34.612 34.612 0 0 1 6.797-5.297A33.014 33.014 0 0 1 679.844 2c2.844-.813 5.812-1.219 8.906-1.219h44.062V68Zm163.219-19.219c0 2.688-.64 5.203-1.922 7.547-1.25 2.313-2.968 4.344-5.156 6.094-2.156 1.719-4.687 3.078-7.594 4.078-2.906 1-6.015 1.5-9.328 1.5h-53.672v-9.61h53.672c1.969 0 3.828-.25 5.578-.75 1.75-.5 3.266-1.187 4.547-2.062 1.313-.875 2.344-1.89 3.094-3.047.781-1.187 1.172-2.437 1.172-3.75V44h-44.063c-3.312 0-6.437-.625-9.375-1.875-2.906-1.25-5.453-2.953-7.64-5.11-2.156-2.187-3.86-4.734-5.11-7.64-1.25-2.938-1.875-6.063-1.875-9.375V.781h9.61V20c0 2 .375 3.875 1.125 5.625a14.912 14.912 0 0 0 3.047 4.594 14.915 14.915 0 0 0 4.593 3.047c1.75.75 3.625 1.125 5.625 1.125h44.063V.78h9.609v48ZM-8 80.75h820.875v1.922H-8V80.75Zm820.875 0h90.609v1.922h-90.609V80.75Z" fill="#fff"/></svg>