<svg width="371" height="183" viewBox="0 0 371 183" fill="none" xmlns="http://www.w3.org/2000/svg">
<g clip-path="url(#clip0_121_2)">
<path d="M215.855 53.0355C215.855 53.0355 215.559 53.1342 214.994 53.3097C214.715 53.3975 214.364 53.5017 213.958 53.6223C213.53 53.7046 213.042 53.8033 212.494 53.9075C211.391 54.0939 210.02 54.1762 208.446 54.0062C206.878 53.8252 205.112 53.2768 203.439 52.2019C201.794 51.116 200.231 49.4817 199.342 47.3758C199.145 46.8438 198.904 46.3174 198.783 45.747C198.717 45.4673 198.651 45.1821 198.58 44.897C198.542 44.6063 198.509 44.3156 198.47 44.0195C198.372 43.4382 198.41 42.8349 198.388 42.2426V42.1329C198.388 42.1055 198.388 42.1165 198.388 42.0561L198.394 42.0013L198.416 41.7874L198.454 41.3542C198.47 41.069 198.525 40.7674 198.591 40.4602C199.041 38.0417 200.313 35.7877 202.161 34.0821C203.999 32.382 206.444 31.2194 209.049 31.0384L209.56 31L210.031 31.0055C210.19 31.011 210.338 31 210.503 31.0165L211.007 31.0713C211.682 31.1481 212.313 31.3181 212.943 31.532C214.194 31.9872 215.323 32.7495 216.25 33.6982C218.104 35.5903 219.036 38.3324 218.784 40.8496C218.74 41.1896 218.696 41.5351 218.614 41.8423C218.548 42.1603 218.438 42.4675 218.323 42.7636C218.214 43.0652 218.06 43.3504 217.917 43.6356C217.747 43.9043 217.605 44.1895 217.407 44.4363C217.051 44.9573 216.601 45.396 216.141 45.8018C215.658 46.1803 215.148 46.5258 214.605 46.7725L214.199 46.959L213.782 47.1071C213.508 47.2168 213.217 47.2716 212.938 47.3429C212.658 47.4142 212.367 47.4361 212.088 47.48C211.945 47.5019 211.803 47.4965 211.665 47.5019L211.21 47.5129L210.832 47.4855L210.645 47.469L210.426 47.4361C210.278 47.4087 210.13 47.3868 209.993 47.3594L209.592 47.2497C209.066 47.0906 208.567 46.8658 208.128 46.5861C206.324 45.4618 205.408 43.5424 205.342 41.8971C205.342 41.6777 205.331 41.5077 205.342 41.2664C205.364 41.0745 205.364 40.9209 205.408 40.707C205.474 40.2957 205.583 39.9502 205.732 39.6157C206.017 38.9521 206.423 38.4201 206.861 38.0362C207.75 37.2575 208.655 36.9997 209.247 36.912C209.549 36.8845 209.779 36.8681 209.932 36.8791C210.086 36.8845 210.168 36.8845 210.168 36.8845V37.0326C210.168 37.0326 210.091 37.0436 209.943 37.06C209.795 37.071 209.581 37.1204 209.302 37.1862C208.764 37.3397 207.964 37.6797 207.284 38.453C206.949 38.8369 206.647 39.3195 206.455 39.8954C206.357 40.1751 206.291 40.4986 206.269 40.7893C206.242 40.9264 206.258 41.1348 206.253 41.3103C206.269 41.4693 206.285 41.6339 206.302 41.8039C206.395 42.4949 206.664 43.1914 207.075 43.833C207.486 44.4747 208.079 45.045 208.803 45.4399C209.159 45.6483 209.554 45.8018 209.965 45.906L210.278 45.9773L210.574 46.0157L210.722 46.0377L210.909 46.0431L211.287 46.0541C211.221 46.0541 211.282 46.0541 211.271 46.0541H211.292L211.336 46.0486L211.419 46.0431L211.589 46.0322C211.704 46.0212 211.819 46.0212 211.929 46.0048C212.154 45.9609 212.384 45.9444 212.609 45.8786C212.834 45.8128 213.058 45.7689 213.278 45.6702L213.607 45.5441L213.925 45.385C214.775 44.9573 215.537 44.3047 216.13 43.504C216.733 42.7197 217.106 41.6942 217.254 40.7344C217.544 38.5846 216.821 36.3032 215.301 34.6031C214.539 33.7421 213.596 33.0292 212.526 32.5685C212 32.3381 211.43 32.1352 210.87 32.0255L210.448 31.9378C210.305 31.9104 210.141 31.9049 209.987 31.8884L209.521 31.8446L209.093 31.8501C207.892 31.8555 206.68 32.0639 205.54 32.4972C204.41 32.9414 203.362 33.594 202.479 34.4112C201.596 35.2283 200.856 36.1935 200.335 37.2465C199.792 38.2885 199.518 39.4511 199.397 40.548C199.15 42.8184 199.704 45.0012 200.538 46.8329C200.752 47.2935 201.015 47.7158 201.251 48.1436C201.394 48.341 201.536 48.5385 201.679 48.7359C201.821 48.9278 201.947 49.1362 202.117 49.3062C202.447 49.6463 202.721 50.0356 203.088 50.3099C203.439 50.606 203.763 50.9241 204.147 51.1489C205.594 52.1635 207.168 52.7339 208.605 53.019C208.962 53.1068 209.324 53.1178 209.664 53.1726C210.004 53.2165 210.338 53.2823 210.656 53.2713C210.98 53.2768 211.287 53.2878 211.583 53.2933C211.731 53.2987 211.874 53.3042 212.016 53.3097C212.159 53.2987 212.291 53.2933 212.428 53.2823C212.965 53.2494 213.442 53.2165 213.859 53.1891C214.281 53.1178 214.638 53.0629 214.929 53.0136C215.51 52.9313 215.822 52.8819 215.822 52.8819L215.855 53.0355Z" fill="url(#paint0_linear_121_2)"/>
<path d="M225.518 60.2746C225.513 60.2636 225.343 60.3404 224.943 60.3733C224.553 60.4007 223.956 60.3788 223.265 60.0443C222.595 59.7152 221.828 59.0297 221.493 57.9548C221.449 57.8232 221.422 57.6861 221.389 57.5435C221.372 57.4119 221.351 57.2802 221.334 57.1431C221.323 57.006 221.318 56.836 221.312 56.6825C221.312 56.5289 221.334 56.3808 221.345 56.2273C221.416 55.613 221.619 54.9769 221.981 54.3955C222.349 53.8197 222.859 53.2932 223.489 52.9038C224.115 52.52 224.921 52.2951 225.645 52.2732C226.429 52.2403 227.219 52.3883 227.943 52.7064C228.666 53.03 229.319 53.5236 229.84 54.1268C230.361 54.7301 230.761 55.443 230.981 56.2163C231.085 56.6057 231.167 56.9951 231.2 57.4009C231.244 57.7738 231.228 58.1906 231.211 58.5964C231.096 60.1978 230.416 61.7937 229.237 63.0057C228.65 63.609 227.943 64.1026 227.158 64.4481C226.763 64.6126 226.358 64.7497 225.935 64.8375L225.776 64.8758L225.738 64.8868L225.716 64.8923L225.661 64.8978L225.59 64.9087L225.299 64.9417C225.096 64.9581 224.932 65.002 224.701 64.9965C223.802 65.0404 222.996 64.8978 222.179 64.6949C221.383 64.4426 220.616 64.1135 219.941 63.6419C219.76 63.5377 219.612 63.4006 219.448 63.269C219.294 63.1374 219.124 63.0167 218.987 62.8686C218.718 62.5615 218.422 62.2818 218.208 61.9418C218.093 61.7773 217.978 61.6127 217.874 61.4482C217.786 61.2727 217.693 61.0972 217.605 60.9217C217.413 60.5762 217.331 60.1978 217.204 59.8414C216.782 58.3771 216.908 56.9347 217.193 55.7227C217.232 55.5692 217.265 55.4211 217.303 55.2675C217.347 55.0701 217.396 54.9769 217.44 54.8288C217.484 54.6972 217.534 54.5601 217.577 54.4339C217.632 54.2968 217.687 54.1597 217.742 54.0281C217.846 53.7539 217.967 53.5016 218.093 53.2658C218.208 53.0245 218.345 52.7996 218.477 52.5858C219.003 51.7247 219.585 51.0666 220.111 50.584C221.164 49.6188 221.926 49.3062 221.926 49.3062L222.003 49.4378C222.003 49.4378 221.85 49.553 221.586 49.8108C221.323 50.063 220.95 50.4469 220.55 50.9844C220.149 51.5218 219.716 52.2128 219.338 53.0464C219.245 53.2548 219.146 53.4687 219.069 53.7045C218.981 53.9349 218.899 54.1652 218.833 54.401C218.8 54.5217 218.762 54.6369 218.724 54.763C218.691 54.9001 218.663 55.0317 218.63 55.1743L218.581 55.3827L218.559 55.4869C218.565 55.4759 218.554 55.5417 218.548 55.5692C218.532 55.7063 218.51 55.8379 218.493 55.975C218.323 57.0609 218.323 58.2619 218.691 59.4026C219.069 60.5269 219.76 61.6127 220.83 62.386C221.345 62.7918 221.965 63.0715 222.601 63.3238C223.248 63.5267 223.966 63.6748 224.625 63.6913C224.778 63.7187 225.003 63.6858 225.189 63.6803L225.48 63.6638L225.551 63.6583C225.59 63.6529 225.524 63.6638 225.535 63.6583H225.551L225.584 63.6529L225.716 63.6364C226.067 63.598 226.412 63.5212 226.758 63.417C227.443 63.2141 228.102 62.8741 228.683 62.4134C229.851 61.5085 230.646 60.0717 230.75 58.5745C230.783 58.2071 230.772 57.8506 230.723 57.4557C230.69 57.0938 230.597 56.7373 230.465 56.4028C230.218 55.7227 229.774 55.1469 229.264 54.7027C228.749 54.2584 228.151 53.9458 227.542 53.7649C226.933 53.5894 226.314 53.54 225.749 53.5949C225.118 53.6387 224.636 53.8087 224.158 54.0665C223.698 54.3297 223.314 54.6972 223.034 55.103C222.743 55.5088 222.557 55.964 222.469 56.4137C222.425 56.6495 222.409 56.847 222.398 57.0663C222.403 57.187 222.403 57.3022 222.409 57.4173C222.425 57.5215 222.431 57.6257 222.453 57.7245C222.606 58.5306 223.089 59.1503 223.588 59.5178C224.093 59.8907 224.603 60.0333 224.948 60.0881C225.288 60.154 225.508 60.1265 225.502 60.1375L225.518 60.2746Z" fill="url(#paint1_linear_121_2)"/>
<path d="M240.534 57.3954C240.534 57.3954 240.682 57.4393 240.973 57.527C241.258 57.5929 241.686 57.6916 242.256 57.6696C242.816 57.6532 243.523 57.5545 244.247 57.2035C244.971 56.8525 245.722 56.2547 246.232 55.3718C246.364 55.1524 246.468 54.9166 246.567 54.6698C246.633 54.4394 246.764 54.1159 246.797 53.8636C246.923 53.3371 246.967 52.7229 246.912 52.1251C246.814 50.9131 246.287 49.6243 245.305 48.6262C244.817 48.1326 244.225 47.7103 243.551 47.4197L243.32 47.3155L243.03 47.2222C242.843 47.1674 242.629 47.0742 242.459 47.0522C242.278 47.0138 242.097 46.97 241.916 46.9316C241.724 46.9096 241.532 46.8822 241.335 46.8603C239.772 46.7287 238.083 47.1345 236.679 48.1162C235.977 48.5988 235.346 49.224 234.858 49.9643C234.737 50.1508 234.633 50.3482 234.513 50.5347C234.403 50.7321 234.321 50.9405 234.222 51.1434L234.184 51.2202C234.184 51.2202 234.162 51.2751 234.178 51.2257L234.162 51.2696L234.101 51.4451L233.981 51.7961L233.86 52.1525L233.789 52.4816C233.323 54.253 233.476 56.2986 234.233 58.1303C235.001 59.9675 236.421 61.5853 238.275 62.6109L238.988 62.9619L239.755 63.2525C239.887 63.3019 240.024 63.3567 240.15 63.4006L240.534 63.4993C240.792 63.5597 241.044 63.6474 241.313 63.6968C242.393 63.9106 243.512 63.9545 244.631 63.8723C245.75 63.7571 246.863 63.4774 247.932 63.0551C249.002 62.6273 249.994 61.9967 250.905 61.2618C251.826 60.5324 252.578 59.6001 253.225 58.6074C253.373 58.3497 253.537 58.1029 253.68 57.8396L254.064 57.0335L254.162 56.8305L254.228 56.6276L254.371 56.1944C254.459 55.9037 254.568 55.6131 254.645 55.3224C255.188 53.019 254.947 50.4799 253.981 48.2697C252.967 46.076 251.294 44.195 249.243 42.9501C247.165 41.7271 244.752 41.1841 242.377 41.2609C241.181 41.2335 240.008 41.4913 238.889 41.8203C237.743 42.1494 236.624 42.621 235.511 43.0817C231.085 45.0121 226.906 47.3977 222.892 49.7285C220.89 50.9076 218.921 52.0703 216.991 53.2055C215.066 54.3517 213.179 55.465 211.325 56.5344C207.629 58.6842 204.108 60.675 200.708 62.2983C199.002 63.0935 197.357 63.8503 195.613 64.2781C195.388 64.322 195.169 64.3713 194.95 64.4152C194.719 64.4481 194.483 64.4591 194.253 64.4755C194.182 64.4755 194.165 64.4865 194.056 64.4865L193.902 64.4755L193.606 64.4536C193.376 64.4152 193.123 64.3878 192.915 64.322C192.048 64.0971 191.264 63.6693 190.661 63.0935C189.416 61.9638 188.901 60.3349 189.016 58.9365C189.131 57.4722 190.019 56.3041 191.034 55.7392C192.059 55.1579 193.162 55.0756 194.028 55.3388C194.9 55.6076 195.471 56.1779 195.794 56.688C196.112 57.2144 196.211 57.6751 196.244 57.9822C196.266 58.1358 196.26 58.251 196.266 58.3332C196.266 58.41 196.266 58.4539 196.266 58.4539H196.118C196.118 58.4539 196.112 58.4155 196.107 58.3442C196.101 58.2674 196.096 58.1577 196.063 58.0151C196.008 57.73 195.882 57.3077 195.564 56.8525C195.235 56.4137 194.697 55.9311 193.924 55.7502C193.173 55.5692 192.186 55.7008 191.352 56.2547C190.518 56.7922 189.838 57.8122 189.794 58.9858C189.751 60.1869 190.25 61.5086 191.308 62.386C191.824 62.8303 192.471 63.1429 193.167 63.2909C193.343 63.3348 193.502 63.3403 193.672 63.3677L193.979 63.3787L194.132 63.3842C194.127 63.3787 194.209 63.3732 194.242 63.3677C194.423 63.3458 194.599 63.3348 194.785 63.3074C194.977 63.2635 195.163 63.2142 195.355 63.1703C196.902 62.748 198.514 61.9692 200.154 61.1411C201.794 60.302 203.478 59.3533 205.211 58.3497C206.938 57.3406 208.731 56.2986 210.558 55.2017C212.384 54.1049 214.265 52.9752 216.201 51.8399C218.131 50.6992 220.106 49.5366 222.146 48.3959C224.18 47.2497 226.259 46.1035 228.398 44.9957C230.542 43.8933 232.73 42.802 235.028 41.8806C236.185 41.4364 237.348 40.9812 238.576 40.6631C239.827 40.3286 241.099 40.0928 242.388 40.1531C244.949 40.1696 247.538 40.8715 249.698 42.2645C251.843 43.674 253.537 45.7251 254.513 48.0613C255.468 50.4086 255.687 53.0135 255.1 55.4705C254.492 57.8616 253.115 60.0607 251.278 61.6786C250.351 62.4738 249.325 63.1593 248.218 63.6639C247.11 64.1574 245.942 64.5084 244.746 64.6784C243.551 64.821 242.344 64.8265 241.165 64.6455C240.869 64.6071 240.573 64.5249 240.276 64.4645L239.832 64.3658C239.69 64.3274 239.564 64.2781 239.426 64.2342L238.593 63.96L237.781 63.598C236.723 63.0716 235.757 62.3641 234.951 61.5195C234.151 60.6695 233.498 59.6988 233.043 58.6568C232.588 57.6093 232.324 56.5015 232.237 55.3992C232.182 54.8453 232.209 54.2969 232.231 53.7484C232.297 53.2055 232.368 52.6735 232.522 52.1306L232.621 51.7302L232.747 51.3793L232.873 51.0283L232.933 50.8528L232.95 50.8089C232.982 50.7321 232.972 50.7595 232.982 50.7321L233.026 50.6389C233.142 50.3976 233.246 50.1508 233.377 49.9205C233.514 49.6956 233.646 49.4653 233.794 49.2459C234.386 48.3739 235.138 47.6445 235.977 47.0797C237.655 45.9499 239.651 45.5331 241.467 45.7305C241.691 45.7634 241.916 45.7964 242.141 45.8293C242.366 45.8841 242.591 45.9389 242.816 45.9938C243.051 46.0431 243.216 46.1309 243.413 46.1967L243.699 46.3009C243.847 46.3612 243.912 46.3996 244.022 46.449C244.812 46.8274 245.497 47.3484 246.051 47.9516C246.605 48.5549 247.022 49.2404 247.302 49.9479C247.581 50.6553 247.719 51.3847 247.746 52.0812C247.773 52.7832 247.702 53.4413 247.516 54.072C247.439 54.412 247.324 54.6259 247.208 54.9385C247.077 55.2127 246.94 55.476 246.775 55.7173C246.128 56.688 245.251 57.2912 244.439 57.6203C243.622 57.9548 242.86 58.0206 242.262 57.9822C241.664 57.9548 241.214 57.8067 240.924 57.7135C240.644 57.6038 240.501 57.5435 240.501 57.5435L240.534 57.3954Z" fill="url(#paint2_linear_121_2)"/>
<path d="M161.616 52.9016C161.616 52.9016 161.929 52.9455 162.511 53.0333C162.802 53.0827 163.158 53.1375 163.581 53.2089C163.998 53.2363 164.475 53.2692 165.013 53.3022C165.145 53.3077 165.282 53.3186 165.425 53.3296C165.567 53.3241 165.71 53.3186 165.858 53.3131C166.155 53.3077 166.462 53.3022 166.786 53.2912C167.11 53.3022 167.439 53.2308 167.779 53.1924C168.119 53.1375 168.481 53.1266 168.838 53.0388C170.276 52.7534 171.851 52.1827 173.3 51.1674C173.684 50.9424 174.008 50.6296 174.359 50.3278C174.726 50.0479 175.001 49.6638 175.33 49.3236C175.5 49.1589 175.621 48.9504 175.769 48.7528C175.912 48.5553 176.055 48.3632 176.197 48.1602C176.433 47.7321 176.697 47.3041 176.911 46.8486C177.745 45.0157 178.299 42.8371 178.052 40.5596C177.937 39.4621 177.662 38.2987 177.114 37.256C176.592 36.1969 175.851 35.231 174.968 34.4189C174.079 33.6012 173.036 32.9481 171.906 32.5036C170.77 32.0701 169.557 31.8616 168.35 31.8561L167.922 31.8506L167.455 31.8945C167.302 31.911 167.137 31.9165 166.994 31.9439L166.572 32.0317C166.012 32.1414 165.441 32.3445 164.914 32.575C163.839 33.0305 162.895 33.7439 162.143 34.6C160.623 36.3012 159.899 38.5841 160.189 40.7352C160.343 41.6956 160.716 42.7218 161.314 43.5066C161.907 44.3078 162.664 44.9608 163.521 45.3888L163.839 45.548L164.168 45.6742C164.382 45.7675 164.613 45.8169 164.838 45.8827C165.063 45.9486 165.293 45.9651 165.518 46.009C165.633 46.0254 165.749 46.0254 165.858 46.0364L166.028 46.0474L166.111 46.0529L166.155 46.0584H166.177C166.166 46.0584 166.226 46.0584 166.16 46.0584L166.539 46.0474L166.725 46.0419L166.874 46.0199L167.17 45.9815L167.483 45.9102C167.894 45.8059 168.289 45.6523 168.646 45.4437C169.37 45.0486 169.963 44.4779 170.375 43.8358C170.786 43.1938 171.061 42.4968 171.148 41.8054C171.165 41.6407 171.181 41.4761 171.198 41.3115C171.192 41.1359 171.209 40.9218 171.181 40.7901C171.159 40.4938 171.094 40.1755 170.995 39.8956C170.808 39.3249 170.501 38.842 170.166 38.4523C169.48 37.6786 168.684 37.3438 168.147 37.1847C167.872 37.1133 167.653 37.0694 167.505 37.0585C167.356 37.042 167.28 37.031 167.28 37.031V36.8829C167.28 36.8829 167.362 36.8829 167.516 36.8774C167.669 36.8664 167.9 36.8829 168.202 36.9103C168.794 36.9981 169.7 37.256 170.589 38.0353C171.028 38.4249 171.434 38.9572 171.719 39.6157C171.862 39.9505 171.977 40.2962 172.043 40.7078C172.087 40.9218 172.087 41.0755 172.109 41.2676C172.114 41.509 172.109 41.6846 172.109 41.8986C172.043 43.545 171.127 45.4657 169.321 46.5907C168.877 46.876 168.383 47.0955 167.856 47.2547L167.455 47.3644C167.313 47.3919 167.164 47.4193 167.022 47.4413L166.802 47.4742L166.616 47.4907L166.237 47.5181L165.781 47.5071C165.639 47.5016 165.496 47.5016 165.359 47.4852C165.079 47.4413 164.788 47.4193 164.508 47.348C164.228 47.2766 163.938 47.2218 163.663 47.112L163.246 46.9638L162.84 46.7772C162.297 46.5248 161.786 46.1846 161.303 45.8059C160.843 45.3998 160.393 44.9608 160.036 44.4395C159.838 44.1925 159.69 43.9072 159.525 43.6383C159.383 43.3529 159.229 43.0675 159.119 42.7657C159.004 42.4639 158.894 42.1621 158.829 41.8438C158.741 41.5365 158.702 41.1907 158.658 40.8505C158.406 38.3316 159.333 35.5932 161.194 33.6945C162.121 32.7506 163.252 31.9878 164.503 31.5268C165.134 31.3073 165.765 31.1427 166.44 31.0659L166.945 31.011C167.11 30.9945 167.263 31.0055 167.417 31L167.878 31L168.388 31.0439C170.989 31.2195 173.437 32.3829 175.281 34.0896C177.13 35.7963 178.398 38.0517 178.853 40.4718C178.919 40.7792 178.974 41.0865 178.99 41.3663L179.029 41.7999L179.051 42.0139L179.056 42.0688C179.062 42.1346 179.056 42.1182 179.056 42.1456V42.2554C179.034 42.8535 179.078 43.4517 178.974 44.0334C178.936 44.3242 178.903 44.6206 178.864 44.9114C178.798 45.1968 178.727 45.4821 178.661 45.762C178.54 46.3327 178.299 46.8596 178.101 47.3919C177.212 49.4992 175.654 51.1345 174.002 52.2211C172.328 53.2912 170.561 53.84 168.992 54.0265C167.417 54.1967 166.045 54.1144 164.942 53.9278C164.393 53.818 163.905 53.7247 163.477 53.6424C163.071 53.5217 162.719 53.4119 162.439 53.3296C161.88 53.1485 161.578 53.0552 161.578 53.0552L161.616 52.9016Z" fill="url(#paint3_linear_121_2)"/>
<path d="M151.919 60.1453C151.914 60.1344 152.133 60.1618 152.474 60.096C152.819 60.0411 153.33 59.8984 153.835 59.5252C154.334 59.1576 154.811 58.5374 154.971 57.7307C154.993 57.632 154.998 57.5277 155.015 57.4234C155.02 57.3082 155.02 57.1929 155.026 57.0722C155.015 56.8582 154.993 56.6606 154.954 56.4192C154.866 55.9637 154.68 55.5137 154.389 55.1076C154.109 54.696 153.725 54.3283 153.264 54.0704C152.787 53.8125 152.298 53.6424 151.672 53.5985C151.107 53.5436 150.487 53.593 149.878 53.7686C149.269 53.9497 148.676 54.2625 148.155 54.707C147.644 55.1515 147.2 55.7332 146.953 56.4082C146.827 56.743 146.728 57.0997 146.695 57.4618C146.646 57.8515 146.635 58.2082 146.668 58.5813C146.772 60.0795 147.568 61.5173 148.737 62.4228C149.313 62.8837 149.977 63.224 150.663 63.427C151.003 63.5313 151.354 63.6081 151.705 63.6465L151.837 63.663L151.87 63.6685H151.887C151.897 63.6685 151.832 63.663 151.87 63.6685L151.941 63.674L152.232 63.6904C152.419 63.6904 152.638 63.7234 152.797 63.7014C153.456 63.6849 154.175 63.5368 154.822 63.3337C155.459 63.0868 156.079 62.8014 156.595 62.3953C157.665 61.6216 158.357 60.535 158.735 59.41C159.103 58.2685 159.103 57.0667 158.933 55.9802C158.916 55.843 158.894 55.7058 158.878 55.5741C158.878 55.5521 158.867 55.4863 158.867 55.4917L158.845 55.3875L158.796 55.1789C158.763 55.0418 158.73 54.9046 158.702 54.7674C158.669 54.6411 158.631 54.5259 158.593 54.4052C158.527 54.1692 158.444 53.9332 158.357 53.7082C158.28 53.4777 158.181 53.2637 158.088 53.0497C157.709 52.2101 157.275 51.5241 156.875 50.9863C156.474 50.443 156.101 50.0644 155.838 49.8119C155.574 49.554 155.421 49.4388 155.421 49.4388L155.497 49.3071C155.497 49.3071 156.26 49.6144 157.314 50.5857C157.835 51.0686 158.422 51.7272 158.949 52.5887C159.081 52.8028 159.218 53.0278 159.333 53.2692C159.46 53.5052 159.58 53.7576 159.685 54.032C159.739 54.1692 159.794 54.3009 159.849 54.4381C159.893 54.5698 159.937 54.7015 159.986 54.8332C160.03 54.9814 160.08 55.0747 160.124 55.2722C160.157 55.4204 160.195 55.5741 160.233 55.7277C160.519 56.9405 160.645 58.3838 160.222 59.849C160.102 60.2057 160.014 60.5844 159.822 60.9301C159.734 61.1057 159.646 61.2813 159.553 61.4569C159.449 61.6216 159.328 61.7862 159.218 61.9508C159.004 62.2965 158.708 62.5764 158.439 62.8782C158.302 63.0264 158.132 63.1471 157.978 63.2788C157.819 63.4051 157.665 63.5477 157.484 63.652C156.809 64.1294 156.035 64.4587 155.245 64.7057C154.427 64.9087 153.621 65.0514 152.721 65.0075C152.49 65.013 152.32 64.9691 152.122 64.9526L151.832 64.9197L151.76 64.9087L151.705 64.9032L151.683 64.8977L151.645 64.8868L151.486 64.8483C151.063 64.7605 150.657 64.6233 150.262 64.4587C149.477 64.113 148.764 63.6191 148.182 63.0154C147.008 61.8081 146.322 60.2112 146.207 58.6033C146.19 58.1972 146.174 57.7801 146.218 57.407C146.251 57.0009 146.333 56.6112 146.437 56.2216C146.662 55.4533 147.063 54.7344 147.579 54.1308C148.1 53.5271 148.753 53.0332 149.477 52.7095C150.202 52.3912 150.992 52.243 151.777 52.2759C152.501 52.2979 153.308 52.5229 153.933 52.907C154.57 53.2967 155.08 53.8235 155.443 54.3997C155.805 54.9814 156.008 55.618 156.079 56.2326C156.09 56.3862 156.107 56.5344 156.112 56.6881C156.107 56.8417 156.107 57.0119 156.09 57.149C156.068 57.2862 156.052 57.4179 156.035 57.5497C156.002 57.6923 155.975 57.8295 155.931 57.9612C155.596 59.0368 154.828 59.7228 154.158 60.0521C153.467 60.3868 152.869 60.4088 152.479 60.3813C152.079 60.3484 151.914 60.2716 151.903 60.2825L151.919 60.1453Z" fill="url(#paint4_linear_121_2)"/>
<path d="M136.932 57.5497C136.932 57.5497 136.79 57.6045 136.51 57.7198C136.219 57.8131 135.775 57.9558 135.171 57.9887C134.573 58.0216 133.81 57.9613 132.992 57.6265C132.18 57.2972 131.302 56.6881 130.654 55.7223C130.49 55.4863 130.353 55.2174 130.221 54.943C130.106 54.6302 129.99 54.4162 129.914 54.0759C129.727 53.4448 129.656 52.7863 129.683 52.0839C129.711 51.3869 129.848 50.6571 130.128 49.9492C130.413 49.2412 130.83 48.5608 131.379 47.9516C131.928 47.348 132.619 46.8266 133.409 46.448C133.519 46.3986 133.579 46.3602 133.733 46.2998L134.018 46.1955C134.216 46.1297 134.381 46.0419 134.617 45.9925C134.842 45.9376 135.061 45.8827 135.292 45.8279C135.517 45.7949 135.742 45.762 135.967 45.7291C137.778 45.5315 139.775 45.9486 141.46 47.0791C142.299 47.6443 143.051 48.3742 143.644 49.2467C143.792 49.4662 143.918 49.6967 144.061 49.9217C144.193 50.1522 144.297 50.3991 144.412 50.6406L144.456 50.7339C144.467 50.7613 144.456 50.7339 144.489 50.8107L144.506 50.8546L144.566 51.0302L144.692 51.3815L144.818 51.7327L144.917 52.1333C145.071 52.6766 145.142 53.2089 145.208 53.7522C145.23 54.3009 145.257 54.8497 145.202 55.404C145.109 56.507 144.851 57.621 144.396 58.6637C143.94 59.7118 143.282 60.6832 142.486 61.5283C141.679 62.3734 140.719 63.0758 139.654 63.6081L138.842 63.9703L138.008 64.2447C137.871 64.2886 137.739 64.3325 137.602 64.3764L137.157 64.4752C136.861 64.5356 136.565 64.6179 136.268 64.6563C135.089 64.8374 133.881 64.8319 132.685 64.6892C131.489 64.5191 130.325 64.1679 129.211 63.674C128.103 63.1691 127.082 62.4831 126.149 61.6874C124.311 60.074 122.933 57.8734 122.324 55.4753C121.737 53.0168 121.956 50.4156 122.911 48.0614C123.894 45.7236 125.584 43.6712 127.73 42.2608C129.892 40.8669 132.482 40.1645 135.045 40.1481C136.334 40.0877 137.607 40.3237 138.859 40.6584C140.088 40.9767 141.251 41.4267 142.409 41.8767C144.709 42.8041 146.898 43.8962 149.044 44.9937C151.184 46.1022 153.264 47.2547 155.3 48.3961C157.336 49.5376 159.317 50.701 161.249 51.8424C163.186 52.9784 165.063 54.1089 166.895 55.2064C168.723 56.304 170.517 57.3466 172.246 58.3564C173.975 59.3661 175.659 60.31 177.306 61.1496C178.947 61.9728 180.554 62.7575 182.107 63.1801C182.3 63.224 182.492 63.2734 182.678 63.3173C182.865 63.3447 183.04 63.3557 183.222 63.3776C183.254 63.3831 183.337 63.3886 183.331 63.3941L183.485 63.3886L183.792 63.3776C183.962 63.3502 184.121 63.3447 184.297 63.3008C184.994 63.1527 185.642 62.8398 186.157 62.3953C187.217 61.5173 187.716 60.1948 187.672 58.9929C187.634 57.8186 186.948 56.7978 186.114 56.2601C185.279 55.7058 184.292 55.5741 183.54 55.7552C182.766 55.9418 182.223 56.4192 181.899 56.8582C181.575 57.3137 181.449 57.7363 181.4 58.0216C181.367 58.1643 181.361 58.2741 181.356 58.3509C181.35 58.4277 181.345 58.4606 181.345 58.4606H181.197C181.197 58.4606 181.197 58.4222 181.197 58.3399C181.197 58.2631 181.191 58.1423 181.218 57.9887C181.251 57.6814 181.35 57.2204 181.668 56.6936C181.992 56.1832 182.563 55.6125 183.436 55.3436C184.303 55.0802 185.411 55.1625 186.432 55.7442C187.453 56.3149 188.336 57.4783 188.451 58.9436C188.567 60.3484 188.051 61.9728 186.805 63.1033C186.196 63.6795 185.417 64.1075 184.55 64.3325C184.336 64.3984 184.089 64.4203 183.858 64.4642L183.551 64.4862L183.397 64.4971C183.287 64.4971 183.265 64.4917 183.2 64.4862C182.969 64.4697 182.728 64.4587 182.503 64.4258C182.283 64.3819 182.064 64.3325 181.839 64.2886C180.093 63.8606 178.447 63.1033 176.74 62.3075C173.344 60.6832 169.815 58.6856 166.116 56.5399C164.267 55.4698 162.374 54.3558 160.447 53.2089C158.516 52.0729 156.546 50.9095 154.543 49.7296C150.526 47.3974 146.344 45.0102 141.915 43.0785C140.807 42.6175 139.682 42.1456 138.535 41.8163C137.421 41.4816 136.246 41.2237 135.045 41.2566C132.668 41.1797 130.248 41.723 128.174 42.9468C126.122 44.198 124.448 46.0748 123.433 48.2699C122.467 50.4815 122.225 53.0223 122.769 55.3271C122.845 55.618 122.95 55.9088 123.043 56.1997L123.186 56.6332L123.252 56.8363L123.35 57.0393L123.734 57.846C123.877 58.1094 124.036 58.3564 124.19 58.6143C124.832 59.6076 125.589 60.5405 126.511 61.2704C127.417 62.0057 128.41 62.6423 129.486 63.0648C130.556 63.4874 131.67 63.7673 132.789 63.8825C133.914 63.9648 135.034 63.9209 136.109 63.7069C136.378 63.6575 136.631 63.5752 136.889 63.5094L137.273 63.4106C137.404 63.3667 137.536 63.3118 137.668 63.2624L138.436 62.9716L139.149 62.6203C140.999 61.5941 142.426 59.9753 143.194 58.1369C143.951 56.304 144.105 54.257 143.638 52.4845L143.567 52.1552L143.446 51.7985L143.326 51.4473L143.265 51.2717L143.249 51.2278C143.265 51.2772 143.243 51.2223 143.243 51.2223L143.205 51.1455C143.106 50.9424 143.024 50.7339 142.914 50.5363C142.799 50.3443 142.689 50.1467 142.568 49.9656C142.08 49.2248 141.449 48.5992 140.746 48.1163C139.342 47.1339 137.646 46.7279 136.087 46.8596C135.89 46.8815 135.698 46.9089 135.506 46.9309C135.325 46.9693 135.143 47.0132 134.962 47.0516C134.792 47.0791 134.578 47.1669 134.392 47.2217L134.101 47.315L133.87 47.4193C133.195 47.7102 132.603 48.1327 132.114 48.6266C131.137 49.6199 130.605 50.9095 130.506 52.1278C130.451 52.7314 130.49 53.3406 130.622 53.8674C130.66 54.1198 130.792 54.4436 130.852 54.6741C130.956 54.921 131.055 55.1625 131.187 55.3765C131.697 56.2655 132.449 56.8637 133.173 57.2094C133.903 57.5661 134.606 57.6649 135.165 57.6759C135.736 57.6924 136.159 57.5936 136.45 57.5332C136.74 57.4454 136.889 57.4015 136.889 57.4015L136.932 57.5497Z" fill="url(#paint5_linear_121_2)"/>
<path d="M368.92 74.57H1.14001C0.820007 74.57 0.570007 74.31 0.570007 74C0.570007 73.68 0.830007 73.43 1.14001 73.43H368.92C369.24 73.43 369.49 73.69 369.49 74C369.5 74.31 369.24 74.57 368.92 74.57Z" fill="url(#paint6_linear_121_2)"/>
<path d="M1.14 82.85C0.83 82.85 0.53 82.72 0.33 82.51C0.13 82.31 0 82.02 0 81.71C0 81.4 0.13 81.12 0.33 80.9C0.74 80.49 1.53 80.48 1.95 80.9C2.16 81.12 2.28 81.41 2.28 81.71C2.28 82.01 2.15 82.3 1.94 82.52C1.74 82.73 1.44 82.85 1.14 82.85Z" fill="url(#paint7_linear_121_2)"/>
<path d="M362.03 81.71C362.03 81.08 362.54 80.57 363.17 80.57C363.8 80.57 364.31 81.08 364.31 81.71C364.31 82.34 363.8 82.85 363.17 82.85C362.55 82.85 362.03 82.34 362.03 81.71ZM356.28 81.71C356.28 81.08 356.79 80.57 357.42 80.57C358.06 80.57 358.56 81.08 358.56 81.71C358.56 82.34 358.06 82.85 357.42 82.85C356.8 82.85 356.28 82.34 356.28 81.71ZM350.53 81.71C350.53 81.08 351.04 80.57 351.67 80.57C352.31 80.57 352.81 81.08 352.81 81.71C352.81 82.34 352.31 82.85 351.67 82.85C351.05 82.85 350.53 82.34 350.53 81.71ZM344.8 81.71C344.8 81.08 345.3 80.57 345.93 80.57C346.57 80.57 347.08 81.08 347.08 81.71C347.08 82.34 346.57 82.85 345.93 82.85C345.3 82.85 344.8 82.34 344.8 81.71ZM339.05 81.71C339.05 81.08 339.56 80.57 340.19 80.57C340.82 80.57 341.33 81.08 341.33 81.71C341.33 82.34 340.82 82.85 340.19 82.85C339.56 82.85 339.05 82.34 339.05 81.71ZM333.3 81.71C333.3 81.08 333.81 80.57 334.44 80.57C335.07 80.57 335.58 81.08 335.58 81.71C335.58 82.34 335.07 82.85 334.44 82.85C333.82 82.85 333.3 82.34 333.3 81.71ZM327.55 81.71C327.55 81.08 328.06 80.57 328.69 80.57C329.32 80.57 329.83 81.08 329.83 81.71C329.83 82.34 329.32 82.85 328.69 82.85C328.07 82.85 327.55 82.34 327.55 81.71ZM321.8 81.71C321.8 81.08 322.31 80.57 322.94 80.57C323.57 80.57 324.08 81.08 324.08 81.71C324.08 82.34 323.57 82.85 322.94 82.85C322.32 82.85 321.8 82.34 321.8 81.71ZM316.06 81.71C316.06 81.08 316.57 80.57 317.2 80.57C317.84 80.57 318.34 81.08 318.34 81.71C318.34 82.34 317.84 82.85 317.2 82.85C316.57 82.85 316.06 82.34 316.06 81.71ZM310.31 81.71C310.31 81.08 310.82 80.57 311.45 80.57C312.09 80.57 312.6 81.08 312.6 81.71C312.6 82.34 312.09 82.85 311.45 82.85C310.82 82.85 310.31 82.34 310.31 81.71ZM304.57 81.71C304.57 81.08 305.07 80.57 305.71 80.57C306.34 80.57 306.85 81.08 306.85 81.71C306.85 82.34 306.34 82.85 305.71 82.85C305.07 82.85 304.57 82.34 304.57 81.71ZM298.82 81.71C298.82 81.08 299.33 80.57 299.96 80.57C300.59 80.57 301.1 81.08 301.1 81.71C301.1 82.34 300.59 82.85 299.96 82.85C299.34 82.85 298.82 82.34 298.82 81.71ZM293.07 81.71C293.07 81.08 293.58 80.57 294.21 80.57C294.84 80.57 295.35 81.08 295.35 81.71C295.35 82.34 294.84 82.85 294.21 82.85C293.59 82.85 293.07 82.34 293.07 81.71ZM287.33 81.71C287.33 81.08 287.84 80.57 288.47 80.57C289.1 80.57 289.61 81.08 289.61 81.71C289.61 82.34 289.1 82.85 288.47 82.85C287.84 82.85 287.33 82.34 287.33 81.71ZM281.58 81.71C281.58 81.08 282.09 80.57 282.72 80.57C283.35 80.57 283.86 81.08 283.86 81.71C283.86 82.34 283.35 82.85 282.72 82.85C282.09 82.85 281.58 82.34 281.58 81.71ZM275.83 81.71C275.83 81.08 276.34 80.57 276.98 80.57C277.61 80.57 278.11 81.08 278.11 81.71C278.11 82.34 277.61 82.85 276.98 82.85C276.34 82.85 275.83 82.34 275.83 81.71ZM270.09 81.71C270.09 81.08 270.59 80.57 271.23 80.57C271.86 80.57 272.37 81.08 272.37 81.71C272.37 82.34 271.86 82.85 271.23 82.85C270.6 82.85 270.09 82.34 270.09 81.71ZM264.34 81.71C264.34 81.08 264.84 80.57 265.48 80.57C266.11 80.57 266.62 81.08 266.62 81.71C266.62 82.34 266.11 82.85 265.48 82.85C264.85 82.85 264.34 82.34 264.34 81.71ZM258.6 81.71C258.6 81.08 259.11 80.57 259.74 80.57C260.37 80.57 260.88 81.08 260.88 81.71C260.88 82.34 260.37 82.85 259.74 82.85C259.11 82.85 258.6 82.34 258.6 81.71ZM252.85 81.71C252.85 81.08 253.36 80.57 253.99 80.57C254.62 80.57 255.13 81.08 255.13 81.71C255.13 82.34 254.62 82.85 253.99 82.85C253.36 82.85 252.85 82.34 252.85 81.71ZM247.1 81.71C247.1 81.08 247.61 80.57 248.24 80.57C248.87 80.57 249.38 81.08 249.38 81.71C249.38 82.34 248.87 82.85 248.24 82.85C247.61 82.85 247.1 82.34 247.1 81.71ZM241.35 81.71C241.35 81.08 241.86 80.57 242.49 80.57C243.13 80.57 243.63 81.08 243.63 81.71C243.63 82.34 243.13 82.85 242.49 82.85C241.86 82.85 241.35 82.34 241.35 81.71ZM235.61 81.71C235.61 81.08 236.11 80.57 236.75 80.57C237.38 80.57 237.89 81.08 237.89 81.71C237.89 82.34 237.38 82.85 236.75 82.85C236.12 82.85 235.61 82.34 235.61 81.71ZM229.87 81.71C229.87 81.08 230.37 80.57 231.01 80.57C231.64 80.57 232.15 81.08 232.15 81.71C232.15 82.34 231.64 82.85 231.01 82.85C230.37 82.85 229.87 82.34 229.87 81.71ZM224.12 81.71C224.12 81.08 224.63 80.57 225.26 80.57C225.89 80.57 226.4 81.08 226.4 81.71C226.4 82.34 225.89 82.85 225.26 82.85C224.63 82.85 224.12 82.34 224.12 81.71ZM218.37 81.71C218.37 81.08 218.88 80.57 219.51 80.57C220.14 80.57 220.65 81.08 220.65 81.71C220.65 82.34 220.14 82.85 219.51 82.85C218.88 82.85 218.37 82.34 218.37 81.71ZM212.62 81.71C212.62 81.08 213.13 80.57 213.76 80.57C214.39 80.57 214.9 81.08 214.9 81.71C214.9 82.34 214.39 82.85 213.76 82.85C213.13 82.85 212.62 82.34 212.62 81.71ZM206.87 81.71C206.87 81.08 207.38 80.57 208.01 80.57C208.65 80.57 209.15 81.08 209.15 81.71C209.15 82.34 208.65 82.85 208.01 82.85C207.39 82.85 206.87 82.34 206.87 81.71ZM201.12 81.71C201.12 81.08 201.63 80.57 202.26 80.57C202.9 80.57 203.41 81.08 203.41 81.71C203.41 82.34 202.9 82.85 202.26 82.85C201.64 82.85 201.12 82.34 201.12 81.71ZM195.39 81.71C195.39 81.08 195.89 80.57 196.53 80.57C197.16 80.57 197.67 81.08 197.67 81.71C197.67 82.34 197.16 82.85 196.53 82.85C195.89 82.85 195.39 82.34 195.39 81.71ZM189.64 81.71C189.64 81.08 190.15 80.57 190.78 80.57C191.41 80.57 191.92 81.08 191.92 81.71C191.92 82.34 191.41 82.85 190.78 82.85C190.15 82.85 189.64 82.34 189.64 81.71ZM183.89 81.71C183.89 81.08 184.4 80.57 185.03 80.57C185.66 80.57 186.17 81.08 186.17 81.71C186.17 82.34 185.66 82.85 185.03 82.85C184.4 82.85 183.89 82.34 183.89 81.71ZM178.14 81.71C178.14 81.08 178.65 80.57 179.28 80.57C179.91 80.57 180.42 81.08 180.42 81.71C180.42 82.34 179.91 82.85 179.28 82.85C178.66 82.85 178.14 82.34 178.14 81.71ZM172.39 81.71C172.39 81.08 172.9 80.57 173.53 80.57C174.16 80.57 174.67 81.08 174.67 81.71C174.67 82.34 174.16 82.85 173.53 82.85C172.91 82.85 172.39 82.34 172.39 81.71ZM166.64 81.71C166.64 81.08 167.15 80.57 167.78 80.57C168.42 80.57 168.93 81.08 168.93 81.71C168.93 82.34 168.42 82.85 167.78 82.85C167.16 82.85 166.64 82.34 166.64 81.71ZM160.91 81.71C160.91 81.08 161.41 80.57 162.05 80.57C162.68 80.57 163.19 81.08 163.19 81.71C163.19 82.34 162.68 82.85 162.05 82.85C161.41 82.85 160.91 82.34 160.91 81.71ZM155.16 81.71C155.16 81.08 155.66 80.57 156.3 80.57C156.93 80.57 157.44 81.08 157.44 81.71C157.44 82.34 156.93 82.85 156.3 82.85C155.66 82.85 155.16 82.34 155.16 81.71ZM149.41 81.71C149.41 81.08 149.92 80.57 150.55 80.57C151.18 80.57 151.69 81.08 151.69 81.71C151.69 82.34 151.18 82.85 150.55 82.85C149.93 82.85 149.41 82.34 149.41 81.71ZM143.66 81.71C143.66 81.08 144.17 80.57 144.8 80.57C145.43 80.57 145.94 81.08 145.94 81.71C145.94 82.34 145.43 82.85 144.8 82.85C144.18 82.85 143.66 82.34 143.66 81.71ZM137.91 81.71C137.91 81.08 138.42 80.57 139.05 80.57C139.68 80.57 140.19 81.08 140.19 81.71C140.19 82.34 139.68 82.85 139.05 82.85C138.43 82.85 137.91 82.34 137.91 81.71ZM132.17 81.71C132.17 81.08 132.68 80.57 133.31 80.57C133.95 80.57 134.45 81.08 134.45 81.71C134.45 82.34 133.95 82.85 133.31 82.85C132.68 82.85 132.17 82.34 132.17 81.71ZM126.43 81.71C126.43 81.08 126.93 80.57 127.56 80.57C128.2 80.57 128.71 81.08 128.71 81.71C128.71 82.34 128.2 82.85 127.56 82.85C126.93 82.85 126.43 82.34 126.43 81.71ZM120.68 81.71C120.68 81.08 121.18 80.57 121.82 80.57C122.45 80.57 122.96 81.08 122.96 81.71C122.96 82.34 122.45 82.85 121.82 82.85C121.18 82.85 120.68 82.34 120.68 81.71ZM114.93 81.71C114.93 81.08 115.44 80.57 116.07 80.57C116.7 80.57 117.21 81.08 117.21 81.71C117.21 82.34 116.7 82.85 116.07 82.85C115.45 82.85 114.93 82.34 114.93 81.71ZM109.18 81.71C109.18 81.08 109.69 80.57 110.32 80.57C110.95 80.57 111.46 81.08 111.46 81.71C111.46 82.34 110.95 82.85 110.32 82.85C109.7 82.85 109.18 82.34 109.18 81.71ZM103.44 81.71C103.44 81.08 103.95 80.57 104.58 80.57C105.21 80.57 105.72 81.08 105.72 81.71C105.72 82.34 105.21 82.85 104.58 82.85C103.95 82.85 103.44 82.34 103.44 81.71ZM97.69 81.71C97.69 81.08 98.2 80.57 98.83 80.57C99.47 80.57 99.97 81.08 99.97 81.71C99.97 82.34 99.47 82.85 98.83 82.85C98.2 82.85 97.69 82.34 97.69 81.71ZM91.94 81.71C91.94 81.08 92.45 80.57 93.08 80.57C93.72 80.57 94.22 81.08 94.22 81.71C94.22 82.34 93.72 82.85 93.08 82.85C92.45 82.85 91.94 82.34 91.94 81.71ZM86.2 81.71C86.2 81.08 86.7 80.57 87.34 80.57C87.97 80.57 88.48 81.08 88.48 81.71C88.48 82.34 87.97 82.85 87.34 82.85C86.71 82.85 86.2 82.34 86.2 81.71ZM80.45 81.71C80.45 81.08 80.95 80.57 81.59 80.57C82.22 80.57 82.73 81.08 82.73 81.71C82.73 82.34 82.22 82.85 81.59 82.85C80.96 82.85 80.45 82.34 80.45 81.71ZM74.71 81.71C74.71 81.08 75.22 80.57 75.85 80.57C76.48 80.57 76.99 81.08 76.99 81.71C76.99 82.34 76.48 82.85 75.85 82.85C75.22 82.85 74.71 82.34 74.71 81.71ZM68.96 81.71C68.96 81.08 69.47 80.57 70.1 80.57C70.73 80.57 71.24 81.08 71.24 81.71C71.24 82.34 70.73 82.85 70.1 82.85C69.47 82.85 68.96 82.34 68.96 81.71ZM63.21 81.71C63.21 81.08 63.72 80.57 64.35 80.57C64.98 80.57 65.49 81.08 65.49 81.71C65.49 82.34 64.98 82.85 64.35 82.85C63.72 82.85 63.21 82.34 63.21 81.71ZM57.46 81.71C57.46 81.08 57.97 80.57 58.6 80.57C59.24 80.57 59.74 81.08 59.74 81.71C59.74 82.34 59.24 82.85 58.6 82.85C57.97 82.85 57.46 82.34 57.46 81.71ZM51.72 81.71C51.72 81.08 52.22 80.57 52.86 80.57C53.49 80.57 53.99 81.08 53.99 81.71C53.99 82.34 53.49 82.85 52.86 82.85C52.23 82.85 51.72 82.34 51.72 81.71ZM45.98 81.71C45.98 81.08 46.48 80.57 47.12 80.57C47.75 80.57 48.26 81.08 48.26 81.71C48.26 82.34 47.75 82.85 47.12 82.85C46.48 82.85 45.98 82.34 45.98 81.71ZM40.23 81.71C40.23 81.08 40.74 80.57 41.37 80.57C42 80.57 42.51 81.08 42.51 81.71C42.51 82.34 42 82.85 41.37 82.85C40.74 82.85 40.23 82.34 40.23 81.71ZM34.48 81.71C34.48 81.08 34.99 80.57 35.62 80.57C36.25 80.57 36.76 81.08 36.76 81.71C36.76 82.34 36.25 82.85 35.62 82.85C34.99 82.85 34.48 82.34 34.48 81.71ZM28.73 81.71C28.73 81.08 29.24 80.57 29.87 80.57C30.5 80.57 31.01 81.08 31.01 81.71C31.01 82.34 30.5 82.85 29.87 82.85C29.24 82.85 28.73 82.34 28.73 81.71ZM22.98 81.71C22.98 81.08 23.49 80.57 24.12 80.57C24.76 80.57 25.26 81.08 25.26 81.71C25.26 82.34 24.76 82.85 24.12 82.85C23.5 82.85 22.98 82.34 22.98 81.71ZM17.24 81.71C17.24 81.08 17.74 80.57 18.37 80.57C19.01 80.57 19.51 81.08 19.51 81.71C19.51 82.34 19.01 82.85 18.37 82.85C17.75 82.85 17.24 82.34 17.24 81.71ZM11.5 81.71C11.5 81.08 12 80.57 12.64 80.57C13.27 80.57 13.78 81.08 13.78 81.71C13.78 82.34 13.27 82.85 12.64 82.85C12 82.85 11.5 82.34 11.5 81.71ZM5.75 81.71C5.75 81.08 6.25 80.57 6.89 80.57C7.52 80.57 8.03 81.08 8.03 81.71C8.03 82.34 7.52 82.85 6.89 82.85C6.25 82.85 5.75 82.34 5.75 81.71Z" fill="url(#paint8_linear_121_2)"/>
<path d="M368.92 82.85C368.62 82.85 368.33 82.72 368.11 82.52C367.9 82.3 367.78 82.01 367.78 81.71C367.78 81.41 367.91 81.12 368.11 80.9C368.54 80.48 369.3 80.48 369.73 80.9C369.94 81.12 370.06 81.41 370.06 81.71C370.06 82.01 369.93 82.3 369.73 82.52C369.52 82.73 369.22 82.85 368.92 82.85Z" fill="url(#paint9_linear_121_2)"/>
<path d="M320.17 182.42H45.9C45.58 182.42 45.33 182.16 45.33 181.85C45.33 181.53 45.59 181.28 45.9 181.28H320.17C320.49 181.28 320.74 181.54 320.74 181.85C320.74 182.17 320.49 182.42 320.17 182.42Z" fill="url(#paint10_linear_121_2)"/>
<path d="M320.17 175.28C319.87 175.28 319.58 175.15 319.36 174.95C319.15 174.73 319.03 174.44 319.03 174.14C319.03 173.84 319.16 173.55 319.36 173.33C319.79 172.91 320.56 172.91 320.98 173.33C321.19 173.55 321.31 173.84 321.31 174.14C321.31 174.44 321.18 174.73 320.98 174.95C320.76 175.15 320.47 175.28 320.17 175.28Z" fill="url(#paint11_linear_121_2)"/>
<path d="M313.31 174.14C313.31 173.51 313.82 173 314.45 173C315.08 173 315.59 173.51 315.59 174.14C315.59 174.77 315.08 175.28 314.45 175.28C313.83 175.28 313.31 174.77 313.31 174.14ZM307.6 174.14C307.6 173.51 308.11 173 308.74 173C309.37 173 309.88 173.51 309.88 174.14C309.88 174.77 309.37 175.28 308.74 175.28C308.11 175.28 307.6 174.77 307.6 174.14ZM301.89 174.14C301.89 173.51 302.4 173 303.03 173C303.66 173 304.17 173.51 304.17 174.14C304.17 174.77 303.66 175.28 303.03 175.28C302.4 175.28 301.89 174.77 301.89 174.14ZM296.17 174.14C296.17 173.51 296.68 173 297.31 173C297.94 173 298.45 173.51 298.45 174.14C298.45 174.77 297.94 175.28 297.31 175.28C296.69 175.28 296.17 174.77 296.17 174.14ZM290.46 174.14C290.46 173.51 290.97 173 291.6 173C292.23 173 292.74 173.51 292.74 174.14C292.74 174.77 292.23 175.28 291.6 175.28C290.97 175.28 290.46 174.77 290.46 174.14ZM284.74 174.14C284.74 173.51 285.25 173 285.88 173C286.51 173 287.02 173.51 287.02 174.14C287.02 174.77 286.51 175.28 285.88 175.28C285.26 175.28 284.74 174.77 284.74 174.14ZM279.03 174.14C279.03 173.51 279.54 173 280.17 173C280.8 173 281.31 173.51 281.31 174.14C281.31 174.77 280.8 175.28 280.17 175.28C279.54 175.28 279.03 174.77 279.03 174.14ZM273.32 174.14C273.32 173.51 273.83 173 274.46 173C275.09 173 275.6 173.51 275.6 174.14C275.6 174.77 275.09 175.28 274.46 175.28C273.83 175.28 273.32 174.77 273.32 174.14ZM267.6 174.14C267.6 173.51 268.11 173 268.74 173C269.37 173 269.88 173.51 269.88 174.14C269.88 174.77 269.37 175.28 268.74 175.28C268.12 175.28 267.6 174.77 267.6 174.14ZM261.89 174.14C261.89 173.51 262.4 173 263.03 173C263.66 173 264.17 173.51 264.17 174.14C264.17 174.77 263.66 175.28 263.03 175.28C262.4 175.28 261.89 174.77 261.89 174.14ZM256.17 174.14C256.17 173.51 256.68 173 257.31 173C257.94 173 258.45 173.51 258.45 174.14C258.45 174.77 257.94 175.28 257.31 175.28C256.69 175.28 256.17 174.77 256.17 174.14ZM250.46 174.14C250.46 173.51 250.97 173 251.6 173C252.23 173 252.74 173.51 252.74 174.14C252.74 174.77 252.23 175.28 251.6 175.28C250.97 175.28 250.46 174.77 250.46 174.14ZM244.74 174.14C244.74 173.51 245.25 173 245.88 173C246.51 173 247.02 173.51 247.02 174.14C247.02 174.77 246.51 175.28 245.88 175.28C245.26 175.28 244.74 174.77 244.74 174.14ZM239.03 174.14C239.03 173.51 239.54 173 240.17 173C240.8 173 241.31 173.51 241.31 174.14C241.31 174.77 240.8 175.28 240.17 175.28C239.55 175.28 239.03 174.77 239.03 174.14ZM233.32 174.14C233.32 173.51 233.83 173 234.46 173C235.09 173 235.6 173.51 235.6 174.14C235.6 174.77 235.09 175.28 234.46 175.28C233.83 175.28 233.32 174.77 233.32 174.14ZM227.6 174.14C227.6 173.51 228.11 173 228.74 173C229.37 173 229.88 173.51 229.88 174.14C229.88 174.77 229.37 175.28 228.74 175.28C228.12 175.28 227.6 174.77 227.6 174.14ZM221.89 174.14C221.89 173.51 222.4 173 223.03 173C223.66 173 224.17 173.51 224.17 174.14C224.17 174.77 223.66 175.28 223.03 175.28C222.4 175.28 221.89 174.77 221.89 174.14ZM216.17 174.14C216.17 173.51 216.68 173 217.31 173C217.94 173 218.45 173.51 218.45 174.14C218.45 174.77 217.94 175.28 217.31 175.28C216.69 175.28 216.17 174.77 216.17 174.14ZM210.46 174.14C210.46 173.51 210.97 173 211.6 173C212.23 173 212.74 173.51 212.74 174.14C212.74 174.77 212.23 175.28 211.6 175.28C210.97 175.28 210.46 174.77 210.46 174.14ZM204.75 174.14C204.75 173.51 205.26 173 205.89 173C206.52 173 207.03 173.51 207.03 174.14C207.03 174.77 206.52 175.28 205.89 175.28C205.26 175.28 204.75 174.77 204.75 174.14ZM199.03 174.14C199.03 173.51 199.54 173 200.17 173C200.8 173 201.31 173.51 201.31 174.14C201.31 174.77 200.8 175.28 200.17 175.28C199.55 175.28 199.03 174.77 199.03 174.14ZM193.32 174.14C193.32 173.51 193.83 173 194.46 173C195.09 173 195.6 173.51 195.6 174.14C195.6 174.77 195.09 175.28 194.46 175.28C193.83 175.28 193.32 174.77 193.32 174.14ZM187.6 174.14C187.6 173.51 188.11 173 188.74 173C189.37 173 189.88 173.51 189.88 174.14C189.88 174.77 189.37 175.28 188.74 175.28C188.12 175.28 187.6 174.77 187.6 174.14ZM181.89 174.14C181.89 173.51 182.4 173 183.03 173C183.66 173 184.17 173.51 184.17 174.14C184.17 174.77 183.66 175.28 183.03 175.28C182.4 175.28 181.89 174.77 181.89 174.14ZM176.18 174.14C176.18 173.51 176.69 173 177.32 173C177.95 173 178.46 173.51 178.46 174.14C178.46 174.77 177.95 175.28 177.32 175.28C176.69 175.28 176.18 174.77 176.18 174.14ZM170.46 174.14C170.46 173.51 170.97 173 171.6 173C172.23 173 172.74 173.51 172.74 174.14C172.74 174.77 172.23 175.28 171.6 175.28C170.98 175.28 170.46 174.77 170.46 174.14ZM164.75 174.14C164.75 173.51 165.26 173 165.89 173C166.52 173 167.03 173.51 167.03 174.14C167.03 174.77 166.52 175.28 165.89 175.28C165.26 175.28 164.75 174.77 164.75 174.14ZM159.03 174.14C159.03 173.51 159.54 173 160.17 173C160.8 173 161.31 173.51 161.31 174.14C161.31 174.77 160.8 175.28 160.17 175.28C159.55 175.28 159.03 174.77 159.03 174.14ZM153.32 174.14C153.32 173.51 153.83 173 154.46 173C155.09 173 155.6 173.51 155.6 174.14C155.6 174.77 155.09 175.28 154.46 175.28C153.83 175.28 153.32 174.77 153.32 174.14ZM147.61 174.14C147.61 173.51 148.12 173 148.75 173C149.38 173 149.89 173.51 149.89 174.14C149.89 174.77 149.38 175.28 148.75 175.28C148.12 175.28 147.61 174.77 147.61 174.14ZM141.89 174.14C141.89 173.51 142.4 173 143.03 173C143.66 173 144.17 173.51 144.17 174.14C144.17 174.77 143.66 175.28 143.03 175.28C142.41 175.28 141.89 174.77 141.89 174.14ZM136.18 174.14C136.18 173.51 136.69 173 137.32 173C137.95 173 138.46 173.51 138.46 174.14C138.46 174.77 137.95 175.28 137.32 175.28C136.69 175.28 136.18 174.77 136.18 174.14ZM130.46 174.14C130.46 173.51 130.97 173 131.6 173C132.23 173 132.74 173.51 132.74 174.14C132.74 174.77 132.23 175.28 131.6 175.28C130.98 175.28 130.46 174.77 130.46 174.14ZM124.75 174.14C124.75 173.51 125.26 173 125.89 173C126.52 173 127.03 173.51 127.03 174.14C127.03 174.77 126.52 175.28 125.89 175.28C125.26 175.28 124.75 174.77 124.75 174.14ZM119.04 174.14C119.04 173.51 119.55 173 120.18 173C120.81 173 121.32 173.51 121.32 174.14C121.32 174.77 120.81 175.28 120.18 175.28C119.55 175.28 119.04 174.77 119.04 174.14ZM113.32 174.14C113.32 173.51 113.83 173 114.46 173C115.09 173 115.6 173.51 115.6 174.14C115.6 174.77 115.09 175.28 114.46 175.28C113.84 175.28 113.32 174.77 113.32 174.14ZM107.61 174.14C107.61 173.51 108.12 173 108.75 173C109.38 173 109.89 173.51 109.89 174.14C109.89 174.77 109.38 175.28 108.75 175.28C108.12 175.28 107.61 174.77 107.61 174.14ZM101.89 174.14C101.89 173.51 102.4 173 103.03 173C103.66 173 104.17 173.51 104.17 174.14C104.17 174.77 103.66 175.28 103.03 175.28C102.41 175.28 101.89 174.77 101.89 174.14ZM96.18 174.14C96.18 173.51 96.69 173 97.32 173C97.95 173 98.46 173.51 98.46 174.14C98.46 174.77 97.95 175.28 97.32 175.28C96.69 175.28 96.18 174.77 96.18 174.14ZM90.47 174.14C90.47 173.51 90.98 173 91.61 173C92.24 173 92.75 173.51 92.75 174.14C92.75 174.77 92.24 175.28 91.61 175.28C90.98 175.28 90.47 174.77 90.47 174.14ZM84.75 174.14C84.75 173.51 85.26 173 85.89 173C86.52 173 87.03 173.51 87.03 174.14C87.03 174.77 86.52 175.28 85.89 175.28C85.26 175.28 84.75 174.77 84.75 174.14ZM79.04 174.14C79.04 173.51 79.55 173 80.18 173C80.81 173 81.32 173.51 81.32 174.14C81.32 174.77 80.81 175.28 80.18 175.28C79.55 175.28 79.04 174.77 79.04 174.14ZM73.32 174.14C73.32 173.51 73.83 173 74.46 173C75.09 173 75.6 173.51 75.6 174.14C75.6 174.77 75.09 175.28 74.46 175.28C73.84 175.28 73.32 174.77 73.32 174.14ZM67.61 174.14C67.61 173.51 68.12 173 68.75 173C69.38 173 69.89 173.51 69.89 174.14C69.89 174.77 69.38 175.28 68.75 175.28C68.12 175.28 67.61 174.77 67.61 174.14ZM61.89 174.14C61.89 173.51 62.4 173 63.03 173C63.66 173 64.17 173.51 64.17 174.14C64.17 174.77 63.66 175.28 63.03 175.28C62.41 175.28 61.89 174.77 61.89 174.14ZM56.18 174.14C56.18 173.51 56.69 173 57.32 173C57.95 173 58.46 173.51 58.46 174.14C58.46 174.77 57.95 175.28 57.32 175.28C56.69 175.28 56.18 174.77 56.18 174.14ZM50.47 174.14C50.47 173.51 50.98 173 51.61 173C52.24 173 52.75 173.51 52.75 174.14C52.75 174.77 52.24 175.28 51.61 175.28C50.98 175.28 50.47 174.77 50.47 174.14Z" fill="url(#paint12_linear_121_2)"/>
<path d="M45.9 175.28C45.6 175.28 45.31 175.15 45.09 174.95C44.88 174.73 44.76 174.44 44.76 174.14C44.76 173.83 44.89 173.55 45.09 173.33C45.51 172.91 46.29 172.91 46.71 173.33C46.92 173.55 47.04 173.83 47.04 174.14C47.04 174.44 46.91 174.73 46.71 174.95C46.49 175.15 46.19 175.28 45.9 175.28Z" fill="url(#paint13_linear_121_2)"/>
<path d="M37.49 102.99C37.49 101.85 37.33 101.15 37.02 100.87C36.7 100.6 36.05 100.46 35.07 100.46H33.74V98.67H42.07L49 116.55L56.17 98.68H64.12V100.47H62.73C61.75 100.47 61.1 100.61 60.79 100.88C60.48 101.15 60.33 101.86 60.33 103V117.17C60.33 118.31 60.48 119.01 60.79 119.28C61.1 119.55 61.75 119.68 62.73 119.68H64.12V121.49H53.09V119.68H54.68C55.66 119.68 56.31 119.55 56.62 119.28C56.93 119.01 57.08 118.31 57.08 117.17V101.44L49.06 121.49H47.77L39.75 100.96V117.17C39.75 118.31 39.9 119.01 40.21 119.28C40.52 119.55 41.17 119.68 42.15 119.68H43.68V121.49H33.72V119.68H35.05C36.03 119.68 36.68 119.55 37 119.28C37.31 119.01 37.47 118.31 37.47 117.17V102.99H37.49Z" fill="url(#paint14_linear_121_2)"/>
<path d="M73.13 117.17C73.13 118.31 73.29 119.01 73.6 119.28C73.91 119.55 74.56 119.68 75.55 119.68H77.24V121.49H66.03V119.68H67.42C68.4 119.68 69.05 119.55 69.37 119.28C69.69 119.01 69.84 118.31 69.84 117.17V102.96C69.84 101.83 69.69 101.13 69.38 100.87C69.07 100.6 68.42 100.47 67.42 100.47H66.03V98.68H77.83C81.37 98.68 83.91 99.13 85.46 100.02C87.01 100.91 87.78 102.36 87.78 104.36C87.78 105.9 87.26 107.13 86.22 108.04C85.18 108.96 83.65 109.54 81.62 109.78C83.16 110.09 84.29 110.67 85.03 111.51C85.77 112.35 86.18 113.53 86.28 115.06C86.31 115.58 86.34 116.26 86.35 117.1C86.39 119 86.79 119.95 87.54 119.95C87.96 119.95 88.26 119.7 88.44 119.21C88.62 118.72 88.74 117.61 88.8 115.9H90.43V116.28C90.43 118.34 90.13 119.83 89.52 120.76C88.91 121.69 87.94 122.15 86.62 122.15C85.47 122.15 84.6 121.83 84 121.2C83.4 120.56 83.08 119.61 83.02 118.34L82.89 115.54C82.82 113.8 82.36 112.54 81.5 111.74C80.64 110.94 79.32 110.55 77.53 110.55H73.13V117.17ZM73.13 108.7H77.53C79.88 108.7 81.59 108.34 82.68 107.63C83.77 106.92 84.31 105.8 84.31 104.29C84.31 102.96 83.8 101.99 82.77 101.39C81.74 100.78 80.09 100.48 77.82 100.48H73.12V108.7H73.13Z" fill="url(#paint15_linear_121_2)"/>
<path d="M117.69 120.02C116.69 120.72 115.63 121.25 114.5 121.61C113.37 121.98 112.22 122.16 111.03 122.16C108.8 122.16 106.94 121.5 105.46 120.19C103.98 118.88 103.24 117.23 103.24 115.25C103.24 113.75 103.74 112.39 104.74 111.18C105.74 109.97 107.25 108.89 109.26 107.95C108.81 106.89 108.48 105.99 108.27 105.26C108.06 104.53 107.96 103.88 107.96 103.32C107.96 101.78 108.48 100.51 109.53 99.5C110.58 98.49 111.91 97.99 113.54 97.99C114.88 97.99 116 98.4 116.9 99.21C117.8 100.02 118.25 101.04 118.25 102.27C118.25 103.51 117.82 104.68 116.97 105.78C116.12 106.88 114.88 107.86 113.25 108.73C114.37 110.57 115.35 112.07 116.19 113.24C117.03 114.41 117.86 115.44 118.66 116.31C119.7 115.15 120.5 114.1 121.05 113.17C121.6 112.24 121.88 111.48 121.88 110.9C121.88 110.38 121.68 110.01 121.28 109.78C120.88 109.55 120.23 109.44 119.34 109.44H118.41V107.6H128.42V109.44H127.56C126.76 109.44 126.12 109.59 125.63 109.9C125.14 110.21 124.58 110.93 123.95 112.07L123.77 112.4C122.45 114.81 121.2 116.62 120.02 117.81C120.63 118.43 121.22 118.89 121.79 119.19C122.36 119.49 122.94 119.64 123.52 119.64C124.49 119.64 125.24 119.22 125.76 118.4C126.28 117.57 126.57 116.31 126.64 114.62H128.45V114.75C128.45 117.19 127.98 119.04 127.03 120.28C126.08 121.52 124.69 122.14 122.84 122.14C121.88 122.14 120.97 121.97 120.11 121.62C119.25 121.27 118.46 120.73 117.69 120.02ZM116.16 118.43C115.24 117.43 114.32 116.27 113.39 114.94C112.46 113.61 111.45 111.98 110.35 110.07C109.04 110.71 108.1 111.41 107.52 112.15C106.94 112.9 106.65 113.78 106.65 114.8C106.65 116.24 107.15 117.44 108.14 118.41C109.13 119.38 110.36 119.86 111.82 119.86C112.45 119.86 113.13 119.74 113.86 119.5C114.59 119.26 115.36 118.9 116.16 118.43ZM112.16 106.73C113.47 106 114.39 105.3 114.92 104.62C115.45 103.94 115.73 103.17 115.73 102.28C115.73 101.56 115.52 100.98 115.09 100.53C114.66 100.08 114.1 99.86 113.41 99.86C112.67 99.86 112.08 100.14 111.63 100.7C111.19 101.26 110.97 102.01 110.97 102.97C110.97 103.55 111.07 104.14 111.26 104.76C111.45 105.38 111.75 106.03 112.16 106.73Z" fill="url(#paint16_linear_121_2)"/>
<path d="M145.01 102.99C145.01 101.85 144.85 101.15 144.54 100.87C144.22 100.6 143.57 100.46 142.59 100.46H141.26V98.67H149.59L156.53 116.54L163.7 98.67H171.65V100.46H170.26C169.28 100.46 168.63 100.6 168.32 100.87C168.01 101.14 167.86 101.85 167.86 102.99V117.16C167.86 118.3 168.01 119 168.32 119.27C168.63 119.54 169.28 119.67 170.26 119.67H171.65V121.48H160.6V119.67H162.19C163.17 119.67 163.82 119.54 164.13 119.27C164.44 119 164.59 118.3 164.59 117.16V101.43L156.57 121.48H155.28L147.26 100.95V117.16C147.26 118.3 147.41 119 147.72 119.27C148.03 119.54 148.68 119.67 149.66 119.67H151.19V121.48H141.23V119.67H142.56C143.54 119.67 144.19 119.54 144.51 119.27C144.82 119 144.98 118.3 144.98 117.16V102.99H145.01Z" fill="url(#paint17_linear_121_2)"/>
<path d="M173.62 121.48V119.67H175.16C176.14 119.67 176.79 119.54 177.1 119.27C177.41 119 177.56 118.3 177.56 117.16V102.95C177.56 101.82 177.4 101.12 177.1 100.86C176.8 100.6 176.14 100.46 175.16 100.46H173.62V98.67H184.87V100.46H183.34C182.34 100.46 181.69 100.59 181.39 100.86C181.09 101.13 180.93 101.82 180.93 102.95V117.16C180.93 118.3 181.08 119 181.39 119.27C181.7 119.54 182.35 119.67 183.33 119.67H184.86V121.48H173.62Z" fill="url(#paint18_linear_121_2)"/>
<path d="M187.36 121.48V112.04H189.24C189.59 114.52 190.52 116.47 192.03 117.89C193.53 119.31 195.43 120.02 197.71 120.02C199.36 120.02 200.68 119.63 201.68 118.84C202.68 118.05 203.17 117.02 203.17 115.74C203.17 114.64 202.79 113.79 202.04 113.18C201.29 112.57 199.91 112.04 197.91 111.6L195.09 110.99C192.04 110.3 190 109.49 188.97 108.53C187.94 107.57 187.44 106.18 187.44 104.33C187.44 102.41 188.18 100.87 189.66 99.73C191.14 98.58 193.14 98.01 195.67 98.01C196.92 98.01 198.1 98.22 199.21 98.63C200.32 99.04 201.4 99.68 202.45 100.55L203.45 98.49H205.04V107.12H203.2C202.91 104.82 202.12 103.05 200.84 101.83C199.55 100.6 197.84 99.99 195.7 99.99C194.02 99.99 192.71 100.33 191.77 101.01C190.83 101.69 190.36 102.64 190.36 103.86C190.36 104.81 190.73 105.58 191.48 106.17C192.23 106.76 193.4 107.21 194.99 107.52L198.28 108.2C201.2 108.79 203.26 109.6 204.47 110.64C205.68 111.68 206.28 113.15 206.28 115.04C206.28 117.15 205.5 118.87 203.93 120.19C202.36 121.51 200.33 122.17 197.81 122.17C196.35 122.17 195 121.91 193.77 121.39C192.54 120.87 191.36 120.06 190.23 118.97L189.12 121.49H187.36V121.48Z" fill="url(#paint19_linear_121_2)"/>
<path d="M209.39 121.48V112.04H211.27C211.62 114.52 212.55 116.47 214.06 117.89C215.56 119.31 217.46 120.02 219.74 120.02C221.39 120.02 222.71 119.63 223.71 118.84C224.71 118.05 225.2 117.02 225.2 115.74C225.2 114.64 224.82 113.79 224.07 113.18C223.32 112.57 221.94 112.04 219.94 111.6L217.12 110.99C214.07 110.3 212.03 109.49 211 108.53C209.97 107.57 209.47 106.18 209.47 104.33C209.47 102.41 210.21 100.87 211.69 99.73C213.17 98.58 215.17 98.01 217.7 98.01C218.95 98.01 220.13 98.22 221.24 98.63C222.35 99.04 223.43 99.68 224.48 100.55L225.48 98.49H227.07V107.12H225.23C224.94 104.82 224.15 103.05 222.87 101.83C221.58 100.6 219.87 99.99 217.73 99.99C216.05 99.99 214.74 100.33 213.8 101.01C212.86 101.69 212.39 102.64 212.39 103.86C212.39 104.81 212.76 105.58 213.51 106.17C214.26 106.76 215.43 107.21 217.02 107.52L220.31 108.2C223.23 108.79 225.29 109.6 226.5 110.64C227.71 111.68 228.31 113.15 228.31 115.04C228.31 117.15 227.53 118.87 225.96 120.19C224.39 121.51 222.36 122.17 219.84 122.17C218.38 122.17 217.03 121.91 215.8 121.39C214.57 120.87 213.39 120.06 212.26 118.97L211.15 121.49H209.39V121.48Z" fill="url(#paint20_linear_121_2)"/>
<path d="M240.76 121.48V119.67H242.3C243.28 119.67 243.93 119.54 244.24 119.27C244.55 119 244.7 118.3 244.7 117.16V102.95C244.7 101.82 244.54 101.12 244.24 100.86C243.94 100.6 243.28 100.46 242.3 100.46H240.76V98.67H252.01V100.46H250.48C249.48 100.46 248.83 100.59 248.53 100.86C248.23 101.13 248.07 101.82 248.07 102.95V117.16C248.07 118.3 248.22 119 248.53 119.27C248.84 119.54 249.49 119.67 250.47 119.67H252V121.48H240.76Z" fill="url(#paint21_linear_121_2)"/>
<path d="M276.87 121.58H273.98L260.01 101.77V117.17C260.01 118.31 260.16 119.01 260.47 119.28C260.78 119.55 261.43 119.68 262.41 119.68H264.12V121.49H253.98V119.68H255.31C256.29 119.68 256.94 119.55 257.26 119.28C257.57 119.01 257.73 118.31 257.73 117.17V103C257.73 101.86 257.57 101.16 257.26 100.88C256.94 100.61 256.29 100.47 255.31 100.47H253.98V98.68H261.63L274.58 117V102.99C274.58 101.85 274.43 101.15 274.12 100.87C273.81 100.6 273.16 100.46 272.18 100.46H270.37V98.67H280.41V100.46H279.28C278.3 100.46 277.65 100.6 277.34 100.87C277.03 101.14 276.88 101.85 276.88 102.99V121.58H276.87Z" fill="url(#paint22_linear_121_2)"/>
<path d="M282.26 121.48V119.67H283.65C284.63 119.67 285.28 119.54 285.6 119.27C285.92 119 286.07 118.3 286.07 117.16V102.95C286.07 101.82 285.92 101.12 285.61 100.86C285.3 100.59 284.65 100.46 283.65 100.46H282.26V98.67H293.35C296.13 98.67 298.2 98.85 299.57 99.2C300.94 99.55 302.13 100.15 303.14 100.98C304.37 101.99 305.3 103.26 305.94 104.81C306.58 106.35 306.9 108.1 306.9 110.06C306.9 111.85 306.6 113.51 306 115.05C305.4 116.58 304.57 117.83 303.49 118.79C302.42 119.76 301.17 120.46 299.75 120.86C298.33 121.27 296.17 121.47 293.27 121.47H282.26V121.48ZM289.36 100.47V119.67H293.28C296.74 119.67 299.26 118.88 300.84 117.31C302.42 115.74 303.2 113.22 303.2 109.74C303.2 106.58 302.4 104.24 300.79 102.73C299.19 101.22 296.69 100.46 293.31 100.46H289.36V100.47Z" fill="url(#paint23_linear_121_2)"/>
<path d="M309.25 121.48V119.67H310.79C311.77 119.67 312.42 119.54 312.73 119.27C313.04 119 313.19 118.3 313.19 117.16V102.95C313.19 101.82 313.03 101.12 312.73 100.86C312.43 100.6 311.77 100.46 310.79 100.46H309.25V98.67H320.5V100.46H318.97C317.97 100.46 317.32 100.59 317.02 100.86C316.72 101.13 316.56 101.82 316.56 102.95V117.16C316.56 118.3 316.71 119 317.02 119.27C317.33 119.54 317.98 119.67 318.96 119.67H320.49V121.48H309.25Z" fill="url(#paint24_linear_121_2)"/>
<path d="M320.88 121.48V119.67H322.01C322.77 119.67 323.34 119.54 323.72 119.27C324.1 119 324.43 118.48 324.73 117.71L332.06 98.68H334.91L342.18 117.56C342.5 118.42 342.86 118.99 343.25 119.26C343.64 119.53 344.23 119.67 345 119.67H345.96V121.48H335.14V119.67H336.98C337.8 119.67 338.33 119.6 338.58 119.47C338.83 119.34 338.95 119.07 338.95 118.66C338.95 118.58 338.93 118.46 338.88 118.3C338.84 118.14 338.77 117.95 338.7 117.74L337.27 113.82H328.57L327.31 117.02C327.12 117.51 327 117.87 326.94 118.12C326.88 118.37 326.85 118.58 326.85 118.74C326.85 119.09 326.98 119.33 327.25 119.46C327.52 119.59 328.11 119.65 329.03 119.65H330.72V121.46H320.88V121.48ZM329.28 112.04H336.55L332.85 102.28L329.28 112.04Z" fill="url(#paint25_linear_121_2)"/>
<path d="M59.11 152.58C59.11 153.59 59.25 154.22 59.53 154.46C59.81 154.7 60.39 154.81 61.27 154.81H62.78V156.42H52.8V154.81H54.04C54.92 154.81 55.49 154.69 55.78 154.46C56.06 154.22 56.2 153.6 56.2 152.58V139.94C56.2 138.94 56.06 138.31 55.79 138.08C55.51 137.84 54.93 137.72 54.05 137.72H52.81V136.13H63.31C66.46 136.13 68.73 136.53 70.1 137.32C71.48 138.11 72.17 139.4 72.17 141.18C72.17 142.55 71.71 143.64 70.78 144.46C69.85 145.28 68.49 145.79 66.69 146.01C68.06 146.28 69.07 146.8 69.73 147.55C70.38 148.3 70.76 149.35 70.85 150.71C70.88 151.17 70.9 151.78 70.91 152.53C70.95 154.22 71.3 155.07 71.97 155.07C72.34 155.07 72.61 154.85 72.77 154.41C72.93 153.97 73.04 152.99 73.09 151.46H74.54V151.8C74.54 153.63 74.27 154.96 73.73 155.79C73.19 156.62 72.33 157.03 71.14 157.03C70.12 157.03 69.34 156.75 68.81 156.18C68.28 155.61 67.99 154.77 67.94 153.63L67.82 151.13C67.76 149.58 67.35 148.46 66.59 147.75C65.83 147.04 64.65 146.69 63.05 146.69H59.14V152.58H59.11ZM59.11 145.05H63.02C65.11 145.05 66.64 144.73 67.61 144.1C68.58 143.47 69.06 142.47 69.06 141.12C69.06 139.94 68.6 139.08 67.69 138.54C66.77 138 65.31 137.73 63.29 137.73H59.11V145.05Z" fill="url(#paint26_linear_121_2)"/>
<path d="M79.35 139.94C79.35 138.94 79.21 138.31 78.94 138.08C78.67 137.84 78.09 137.72 77.2 137.72H76.23V136.13H85.95V137.72H84.43C83.55 137.72 82.98 137.84 82.7 138.08C82.42 138.32 82.29 138.94 82.29 139.94V150.07C82.29 151.76 82.7 153.01 83.52 153.81C84.34 154.61 85.62 155.01 87.37 155.01C89.23 155.01 90.57 154.54 91.39 153.61C92.21 152.68 92.62 151.15 92.62 149.01V139.94C92.62 138.94 92.48 138.31 92.21 138.08C91.94 137.84 91.36 137.72 90.47 137.72H88.99V136.13H97.69V137.72H96.79C95.9 137.72 95.33 137.84 95.05 138.08C94.78 138.32 94.64 138.94 94.64 139.94V149.01C94.64 151.71 94 153.72 92.72 155.04C91.44 156.37 89.51 157.03 86.92 157.03C84.46 157.03 82.58 156.44 81.28 155.25C79.98 154.06 79.33 152.34 79.33 150.07V139.94H79.35Z" fill="url(#paint27_linear_121_2)"/>
<path d="M119.77 156.51H117.2L104.76 138.87V152.58C104.76 153.59 104.9 154.22 105.17 154.46C105.45 154.7 106.02 154.81 106.9 154.81H108.42V156.42H99.4V154.81H100.58C101.46 154.81 102.03 154.69 102.32 154.46C102.6 154.22 102.74 153.6 102.74 152.58V139.97C102.74 138.96 102.6 138.33 102.32 138.09C102.04 137.85 101.46 137.73 100.58 137.73H99.4V136.14H106.21L117.73 152.45V139.98C117.73 138.97 117.59 138.34 117.32 138.1C117.04 137.86 116.47 137.74 115.59 137.74H113.98V136.15H122.92V137.74H121.92C121.04 137.74 120.47 137.86 120.19 138.1C119.91 138.34 119.78 138.97 119.78 139.98V156.51H119.77Z" fill="url(#paint28_linear_121_2)"/>
<path d="M131.53 156.42L127.08 140.81L127.06 140.74C126.5 138.73 125.7 137.73 124.65 137.73H123.75V136.14H132.32V137.73H131.14C130.52 137.73 130.1 137.8 129.87 137.94C129.64 138.08 129.53 138.35 129.53 138.73C129.53 138.83 129.54 138.95 129.57 139.09C129.59 139.23 129.63 139.41 129.68 139.63L133.28 152.64L137.49 140.06L137.21 139.03C137.08 138.56 136.87 138.22 136.57 138.03C136.27 137.83 135.8 137.73 135.15 137.73H134.13V136.14H142.99V137.73H141.62C140.94 137.73 140.5 137.79 140.28 137.92C140.07 138.04 139.96 138.28 139.96 138.62C139.96 138.74 139.97 138.87 140 139.03C140.02 139.18 140.06 139.35 140.11 139.52L144.1 152.68L147.73 140.41C147.84 140.06 147.92 139.72 147.98 139.4C148.04 139.08 148.07 138.82 148.07 138.62C148.07 138.3 147.96 138.07 147.74 137.93C147.52 137.8 147.13 137.73 146.58 137.73H145.13V136.14H152.81V137.73H152C151.42 137.73 150.98 137.88 150.68 138.18C150.38 138.48 150.06 139.18 149.73 140.27L144.87 156.43H142.51L138.36 143.12L133.88 156.43H131.53V156.42Z" fill="url(#paint29_linear_121_2)"/>
<path d="M150.51 156.42V154.81H151.51C152.19 154.81 152.7 154.69 153.03 154.46C153.36 154.22 153.66 153.76 153.93 153.07L160.46 136.13H163L169.47 152.94C169.75 153.71 170.07 154.21 170.42 154.45C170.77 154.69 171.29 154.81 171.98 154.81H172.84V156.42H163.21V154.81H164.85C165.58 154.81 166.05 154.75 166.28 154.63C166.5 154.51 166.61 154.27 166.61 153.91C166.61 153.84 166.59 153.74 166.55 153.59C166.51 153.45 166.46 153.28 166.39 153.1L165.12 149.61H157.38L156.26 152.46C156.09 152.89 155.98 153.22 155.93 153.44C155.88 153.66 155.85 153.85 155.85 153.99C155.85 154.31 155.97 154.52 156.2 154.63C156.44 154.74 156.96 154.8 157.78 154.8H159.29V156.41H150.51V156.42ZM157.98 148.02H164.45L161.16 139.33L157.98 148.02Z" fill="url(#paint30_linear_121_2)"/>
<path d="M179.3 148.4L173.94 139.69C173.55 139.03 173.13 138.54 172.7 138.21C172.27 137.88 171.8 137.72 171.31 137.72H170.44V136.13H179.76V137.72H177.8C177.45 137.72 177.18 137.77 177 137.88C176.82 137.98 176.73 138.13 176.73 138.33C176.73 138.51 176.77 138.7 176.84 138.91C176.91 139.12 177.02 139.33 177.16 139.54L181.27 146.35L185.69 139.25C185.81 139.05 185.9 138.87 185.96 138.71C186.02 138.55 186.06 138.4 186.06 138.28C186.06 138.12 185.96 137.99 185.76 137.89C185.56 137.79 185.31 137.73 184.99 137.73H182.94V136.14H191.2V137.73H190.48C189.87 137.73 189.34 137.9 188.89 138.24C188.44 138.58 187.91 139.25 187.3 140.24L182.25 148.41V152.59C182.25 153.6 182.39 154.23 182.66 154.47C182.94 154.71 183.51 154.82 184.39 154.82H186.3V156.43H175.25V154.82H177.17C178.05 154.82 178.62 154.7 178.9 154.47C179.18 154.23 179.31 153.61 179.31 152.59V148.4H179.3Z" fill="url(#paint31_linear_121_2)"/>
<path d="M203.87 139.97C203.87 138.96 203.73 138.33 203.45 138.09C203.17 137.85 202.59 137.73 201.71 137.73H200.53V136.14H207.94L214.11 152.05L220.49 136.14H227.56V137.73H226.32C225.44 137.73 224.87 137.85 224.59 138.09C224.31 138.33 224.18 138.96 224.18 139.97V152.58C224.18 153.59 224.32 154.22 224.59 154.46C224.87 154.7 225.44 154.81 226.32 154.81H227.56V156.42H217.74V154.81H219.16C220.04 154.81 220.61 154.69 220.89 154.46C221.17 154.22 221.3 153.6 221.3 152.58V138.58L214.17 156.42H213.02L205.89 138.15V152.58C205.89 153.59 206.03 154.22 206.3 154.46C206.58 154.7 207.15 154.81 208.03 154.81H209.39V156.42H200.53V154.81H201.71C202.59 154.81 203.16 154.69 203.45 154.46C203.73 154.22 203.87 153.6 203.87 152.58V139.97Z" fill="url(#paint32_linear_121_2)"/>
<path d="M229.62 146.26C229.62 144.68 229.91 143.22 230.48 141.87C231.05 140.52 231.88 139.33 232.98 138.3C233.94 137.41 235.06 136.73 236.37 136.25C237.67 135.77 239.06 135.53 240.51 135.53C241.97 135.53 243.35 135.77 244.65 136.25C245.95 136.73 247.08 137.42 248.04 138.3C249.14 139.33 249.98 140.52 250.54 141.87C251.11 143.21 251.39 144.68 251.39 146.26C251.39 147.85 251.11 149.33 250.54 150.68C249.97 152.03 249.14 153.22 248.04 154.25C247.08 155.14 245.95 155.82 244.65 156.3C243.35 156.78 241.96 157.02 240.51 157.02C239.05 157.02 237.67 156.78 236.37 156.3C235.07 155.82 233.94 155.13 232.98 154.25C231.89 153.23 231.05 152.03 230.48 150.68C229.9 149.32 229.62 147.85 229.62 146.26ZM232.91 146.26C232.91 149.02 233.6 151.22 234.99 152.86C236.37 154.51 238.21 155.33 240.51 155.33C242.8 155.33 244.64 154.51 246.03 152.86C247.41 151.22 248.11 149.02 248.11 146.26C248.11 143.5 247.42 141.31 246.04 139.67C244.66 138.03 242.82 137.22 240.52 137.22C238.23 137.22 236.39 138.04 235 139.67C233.6 141.31 232.91 143.5 232.91 146.26Z" fill="url(#paint33_linear_121_2)"/>
<path d="M253.44 156.42V154.81H254.68C255.56 154.81 256.13 154.69 256.42 154.46C256.7 154.22 256.84 153.6 256.84 152.58V139.94C256.84 138.94 256.7 138.31 256.43 138.08C256.15 137.84 255.57 137.72 254.69 137.72H253.45V136.13H263.32C265.79 136.13 267.64 136.29 268.86 136.6C270.08 136.91 271.14 137.44 272.04 138.18C273.13 139.08 273.96 140.21 274.54 141.58C275.11 142.95 275.4 144.51 275.4 146.25C275.4 147.84 275.13 149.32 274.6 150.69C274.07 152.05 273.32 153.16 272.37 154.02C271.41 154.89 270.3 155.5 269.04 155.87C267.77 156.23 265.85 156.42 263.27 156.42H253.44ZM259.76 137.72V154.81H263.25C266.33 154.81 268.57 154.11 269.98 152.71C271.38 151.31 272.08 149.07 272.08 145.98C272.08 143.16 271.37 141.08 269.94 139.74C268.51 138.39 266.29 137.72 263.28 137.72H259.76Z" fill="url(#paint34_linear_121_2)"/>
<path d="M277.4 156.42V154.81H278.64C279.52 154.81 280.09 154.69 280.38 154.46C280.66 154.22 280.8 153.6 280.8 152.58V139.94C280.8 138.94 280.66 138.31 280.39 138.08C280.11 137.84 279.53 137.72 278.65 137.72H277.41V136.13H296.65V143.75H295.07C295.07 141.39 294.68 139.79 293.9 138.97C293.12 138.14 291.56 137.73 289.24 137.73H283.73V144.97H285.83C287.26 144.97 288.16 144.73 288.53 144.25C288.9 143.77 289.09 142.71 289.09 141.07H290.63V151H289.09C289.05 149.1 288.82 147.88 288.4 147.35C287.98 146.82 287.11 146.55 285.8 146.55H283.73V154.81H289.64C291.78 154.81 293.21 154.37 293.94 153.5C294.67 152.63 295.05 150.85 295.09 148.16H296.66V156.42H277.4Z" fill="url(#paint35_linear_121_2)"/>
<path d="M299.94 136.13H309.92V137.72H308.41C307.52 137.72 306.94 137.84 306.67 138.08C306.39 138.32 306.26 138.94 306.26 139.94V154.81H311.1C312.57 154.81 313.7 154.67 314.5 154.39C315.3 154.11 315.86 153.66 316.18 153.04C316.45 152.54 316.64 151.92 316.76 151.19C316.88 150.46 316.94 149.54 316.94 148.43V147.99H318.52V156.42H299.94V154.81H301.18C302.06 154.81 302.63 154.69 302.92 154.46C303.2 154.22 303.34 153.6 303.34 152.58V139.94C303.34 138.94 303.2 138.31 302.93 138.08C302.65 137.84 302.07 137.72 301.19 137.72H299.95V136.13H299.94Z" fill="url(#paint36_linear_121_2)"/>
<path d="M170.417 22.0143L171.44 29.2448C169.565 28.9536 167.179 29.1213 164.696 29.8187C162.215 30.5157 160.091 31.6129 158.641 32.8381L155.748 26.1349L158.692 28.1062L158.437 29.4545L158.983 29.8078C159.552 30.1746 160.194 29.8726 160.337 29.1681L160.371 29.003C160.457 28.5879 160.345 28.1208 160.079 27.7804L159.19 26.6401L159.45 24.5186L161.074 25.9114L161.137 27.2102C161.16 27.6904 161.41 28.1446 161.776 28.3729C162.443 28.7879 163.16 28.2856 163.143 27.4146L163.118 26.0831L160.404 22.4733L161.711 19.192L164.537 21.3124L164.099 25.8075L164.772 26.9571C165.211 27.7094 166.082 27.7657 166.437 27.0637C166.631 26.6782 166.608 26.16 166.378 25.738L165.755 24.5964L166.417 22.5615L167.743 24.2374L167.577 25.6743C167.528 26.103 167.675 26.5603 167.964 26.8703L168.079 26.9936C168.569 27.5199 169.273 27.4439 169.569 26.8342L169.851 26.2483L168.931 25.2302L170.417 22.0143Z" fill="url(#paint37_linear_121_2)"/>
<g clip-path="url(#clip1_121_2)">
<path d="M223.654 25.3737C221.087 26.8885 219.118 31.6572 218.763 32.5591C217.27 31.4987 215.288 30.5757 213.035 29.9761C210.782 29.3764 208.605 29.1928 206.781 29.3701C206.919 28.4106 207.582 23.2941 206.109 20.7044C206.109 20.7044 210.286 18.7378 209.07 25.0947C209.079 25.0971 210.334 25.4271 211.265 23.4063C211.265 23.4063 211.05 26.0878 212.91 27.0902C212.91 27.0902 210.957 22.6367 215.602 20.3327C218.487 24.6407 214.578 27.5343 214.578 27.5343C216.691 27.5869 217.837 25.1556 217.837 25.1556C217.638 27.3709 218.892 27.7087 218.902 27.7115C221.007 21.5909 223.654 25.3737 223.654 25.3737Z" fill="url(#paint38_linear_121_2)"/>
</g>
<g clip-path="url(#clip2_121_2)">
<path d="M188 54.14C188 53.51 188.51 53 189.14 53C189.77 53 190.28 53.51 190.28 54.14C190.28 54.77 189.77 55.28 189.14 55.28C188.51 55.29 188 54.77 188 54.14Z" fill="url(#paint39_linear_121_2)"/>
</g>
</g>
<defs>
<linearGradient id="paint0_linear_121_2" x1="208.608" y1="66.01" x2="208.608" y2="-1.48015" gradientUnits="userSpaceOnUse">
<stop stop-color="#996F25"/>
<stop offset="0.278" stop-color="#E6B966"/>
<stop offset="0.6436" stop-color="#FFEAC4"/>
<stop offset="1" stop-color="#996F25"/>
</linearGradient>
<linearGradient id="paint1_linear_121_2" x1="224.083" y1="66.01" x2="224.083" y2="-1.48028" gradientUnits="userSpaceOnUse">
<stop stop-color="#996F25"/>
<stop offset="0.278" stop-color="#E6B966"/>
<stop offset="0.6436" stop-color="#FFEAC4"/>
<stop offset="1" stop-color="#996F25"/>
</linearGradient>
<linearGradient id="paint2_linear_121_2" x1="222.201" y1="66.01" x2="222.201" y2="-1.4802" gradientUnits="userSpaceOnUse">
<stop stop-color="#996F25"/>
<stop offset="0.278" stop-color="#E6B966"/>
<stop offset="0.6436" stop-color="#FFEAC4"/>
<stop offset="1" stop-color="#996F25"/>
</linearGradient>
<linearGradient id="paint3_linear_121_2" x1="168.83" y1="66.0326" x2="168.83" y2="-1.50113" gradientUnits="userSpaceOnUse">
<stop stop-color="#996F25"/>
<stop offset="0.278" stop-color="#E6B966"/>
<stop offset="0.6436" stop-color="#FFEAC4"/>
<stop offset="1" stop-color="#996F25"/>
</linearGradient>
<linearGradient id="paint4_linear_121_2" x1="153.345" y1="66.0326" x2="153.345" y2="-1.50126" gradientUnits="userSpaceOnUse">
<stop stop-color="#996F25"/>
<stop offset="0.278" stop-color="#E6B966"/>
<stop offset="0.6436" stop-color="#FFEAC4"/>
<stop offset="1" stop-color="#996F25"/>
</linearGradient>
<linearGradient id="paint5_linear_121_2" x1="155.228" y1="66.0326" x2="155.228" y2="-1.50119" gradientUnits="userSpaceOnUse">
<stop stop-color="#996F25"/>
<stop offset="0.278" stop-color="#E6B966"/>
<stop offset="0.6436" stop-color="#FFEAC4"/>
<stop offset="1" stop-color="#996F25"/>
</linearGradient>
<linearGradient id="paint6_linear_121_2" x1="0.570307" y1="73.9979" x2="369.496" y2="73.9979" gradientUnits="userSpaceOnUse">
<stop stop-color="#996F25"/>
<stop offset="0.278" stop-color="#E6B966"/>
<stop offset="0.6436" stop-color="#FFEAC4"/>
<stop offset="1" stop-color="#996F25"/>
</linearGradient>
<linearGradient id="paint7_linear_121_2" x1="0" y1="81.7212" x2="2.2856" y2="81.7212" gradientUnits="userSpaceOnUse">
<stop stop-color="#996F25"/>
<stop offset="0.278" stop-color="#E6B966"/>
<stop offset="0.6436" stop-color="#FFEAC4"/>
<stop offset="1" stop-color="#996F25"/>
</linearGradient>
<linearGradient id="paint8_linear_121_2" x1="5.7481" y1="81.712" x2="364.317" y2="81.712" gradientUnits="userSpaceOnUse">
<stop stop-color="#996F25"/>
<stop offset="0.278" stop-color="#E6B966"/>
<stop offset="0.6436" stop-color="#FFEAC4"/>
<stop offset="1" stop-color="#996F25"/>
</linearGradient>
<linearGradient id="paint9_linear_121_2" x1="367.78" y1="81.7191" x2="370.066" y2="81.7191" gradientUnits="userSpaceOnUse">
<stop stop-color="#996F25"/>
<stop offset="0.278" stop-color="#E6B966"/>
<stop offset="0.6436" stop-color="#FFEAC4"/>
<stop offset="1" stop-color="#996F25"/>
</linearGradient>
<linearGradient id="paint10_linear_121_2" x1="45.3241" y1="181.852" x2="320.742" y2="181.852" gradientUnits="userSpaceOnUse">
<stop stop-color="#996F25"/>
<stop offset="0.278" stop-color="#E6B966"/>
<stop offset="0.6436" stop-color="#FFEAC4"/>
<stop offset="1" stop-color="#996F25"/>
</linearGradient>
<linearGradient id="paint11_linear_121_2" x1="319.028" y1="174.145" x2="321.313" y2="174.145" gradientUnits="userSpaceOnUse">
<stop stop-color="#996F25"/>
<stop offset="0.278" stop-color="#E6B966"/>
<stop offset="0.6436" stop-color="#FFEAC4"/>
<stop offset="1" stop-color="#996F25"/>
</linearGradient>
<linearGradient id="paint12_linear_121_2" x1="50.4667" y1="174.138" x2="315.599" y2="174.138" gradientUnits="userSpaceOnUse">
<stop stop-color="#996F25"/>
<stop offset="0.278" stop-color="#E6B966"/>
<stop offset="0.6436" stop-color="#FFEAC4"/>
<stop offset="1" stop-color="#996F25"/>
</linearGradient>
<linearGradient id="paint13_linear_121_2" x1="44.7526" y1="174.145" x2="47.0383" y2="174.145" gradientUnits="userSpaceOnUse">
<stop stop-color="#996F25"/>
<stop offset="0.278" stop-color="#E6B966"/>
<stop offset="0.6436" stop-color="#FFEAC4"/>
<stop offset="1" stop-color="#996F25"/>
</linearGradient>
<linearGradient id="paint14_linear_121_2" x1="33.7368" y1="110.079" x2="64.122" y2="110.079" gradientUnits="userSpaceOnUse">
<stop stop-color="#996F25"/>
<stop offset="0.278" stop-color="#E6B966"/>
<stop offset="0.6436" stop-color="#FFEAC4"/>
<stop offset="1" stop-color="#996F25"/>
</linearGradient>
<linearGradient id="paint15_linear_121_2" x1="66.0302" y1="110.419" x2="90.4414" y2="110.419" gradientUnits="userSpaceOnUse">
<stop stop-color="#996F25"/>
<stop offset="0.278" stop-color="#E6B966"/>
<stop offset="0.6436" stop-color="#FFEAC4"/>
<stop offset="1" stop-color="#996F25"/>
</linearGradient>
<linearGradient id="paint16_linear_121_2" x1="103.253" y1="110.079" x2="128.477" y2="110.079" gradientUnits="userSpaceOnUse">
<stop stop-color="#996F25"/>
<stop offset="0.278" stop-color="#E6B966"/>
<stop offset="0.6436" stop-color="#FFEAC4"/>
<stop offset="1" stop-color="#996F25"/>
</linearGradient>
<linearGradient id="paint17_linear_121_2" x1="141.255" y1="110.079" x2="171.64" y2="110.079" gradientUnits="userSpaceOnUse">
<stop stop-color="#996F25"/>
<stop offset="0.278" stop-color="#E6B966"/>
<stop offset="0.6436" stop-color="#FFEAC4"/>
<stop offset="1" stop-color="#996F25"/>
</linearGradient>
<linearGradient id="paint18_linear_121_2" x1="173.615" y1="110.079" x2="184.867" y2="110.079" gradientUnits="userSpaceOnUse">
<stop stop-color="#996F25"/>
<stop offset="0.278" stop-color="#E6B966"/>
<stop offset="0.6436" stop-color="#FFEAC4"/>
<stop offset="1" stop-color="#996F25"/>
</linearGradient>
<linearGradient id="paint19_linear_121_2" x1="187.356" y1="110.079" x2="206.257" y2="110.079" gradientUnits="userSpaceOnUse">
<stop stop-color="#996F25"/>
<stop offset="0.278" stop-color="#E6B966"/>
<stop offset="0.6436" stop-color="#FFEAC4"/>
<stop offset="1" stop-color="#996F25"/>
</linearGradient>
<linearGradient id="paint20_linear_121_2" x1="209.393" y1="110.079" x2="228.295" y2="110.079" gradientUnits="userSpaceOnUse">
<stop stop-color="#996F25"/>
<stop offset="0.278" stop-color="#E6B966"/>
<stop offset="0.6436" stop-color="#FFEAC4"/>
<stop offset="1" stop-color="#996F25"/>
</linearGradient>
<linearGradient id="paint21_linear_121_2" x1="240.758" y1="110.079" x2="252.009" y2="110.079" gradientUnits="userSpaceOnUse">
<stop stop-color="#996F25"/>
<stop offset="0.278" stop-color="#E6B966"/>
<stop offset="0.6436" stop-color="#FFEAC4"/>
<stop offset="1" stop-color="#996F25"/>
</linearGradient>
<linearGradient id="paint22_linear_121_2" x1="253.984" y1="110.129" x2="280.403" y2="110.129" gradientUnits="userSpaceOnUse">
<stop stop-color="#996F25"/>
<stop offset="0.278" stop-color="#E6B966"/>
<stop offset="0.6436" stop-color="#FFEAC4"/>
<stop offset="1" stop-color="#996F25"/>
</linearGradient>
<linearGradient id="paint23_linear_121_2" x1="282.262" y1="110.079" x2="306.905" y2="110.079" gradientUnits="userSpaceOnUse">
<stop stop-color="#996F25"/>
<stop offset="0.278" stop-color="#E6B966"/>
<stop offset="0.6436" stop-color="#FFEAC4"/>
<stop offset="1" stop-color="#996F25"/>
</linearGradient>
<linearGradient id="paint24_linear_121_2" x1="309.245" y1="110.079" x2="320.497" y2="110.079" gradientUnits="userSpaceOnUse">
<stop stop-color="#996F25"/>
<stop offset="0.278" stop-color="#E6B966"/>
<stop offset="0.6436" stop-color="#FFEAC4"/>
<stop offset="1" stop-color="#996F25"/>
</linearGradient>
<linearGradient id="paint25_linear_121_2" x1="320.878" y1="110.079" x2="345.97" y2="110.079" gradientUnits="userSpaceOnUse">
<stop stop-color="#996F25"/>
<stop offset="0.278" stop-color="#E6B966"/>
<stop offset="0.6436" stop-color="#FFEAC4"/>
<stop offset="1" stop-color="#996F25"/>
</linearGradient>
<linearGradient id="paint26_linear_121_2" x1="52.7935" y1="146.579" x2="74.5194" y2="146.579" gradientUnits="userSpaceOnUse">
<stop stop-color="#996F25"/>
<stop offset="0.278" stop-color="#E6B966"/>
<stop offset="0.6436" stop-color="#FFEAC4"/>
<stop offset="1" stop-color="#996F25"/>
</linearGradient>
<linearGradient id="paint27_linear_121_2" x1="76.2334" y1="146.579" x2="97.7084" y2="146.579" gradientUnits="userSpaceOnUse">
<stop stop-color="#996F25"/>
<stop offset="0.278" stop-color="#E6B966"/>
<stop offset="0.6436" stop-color="#FFEAC4"/>
<stop offset="1" stop-color="#996F25"/>
</linearGradient>
<linearGradient id="paint28_linear_121_2" x1="99.4072" y1="146.32" x2="122.92" y2="146.32" gradientUnits="userSpaceOnUse">
<stop stop-color="#996F25"/>
<stop offset="0.278" stop-color="#E6B966"/>
<stop offset="0.6436" stop-color="#FFEAC4"/>
<stop offset="1" stop-color="#996F25"/>
</linearGradient>
<linearGradient id="paint29_linear_121_2" x1="123.762" y1="146.276" x2="152.829" y2="146.276" gradientUnits="userSpaceOnUse">
<stop stop-color="#996F25"/>
<stop offset="0.278" stop-color="#E6B966"/>
<stop offset="0.6436" stop-color="#FFEAC4"/>
<stop offset="1" stop-color="#996F25"/>
</linearGradient>
<linearGradient id="paint30_linear_121_2" x1="150.51" y1="146.276" x2="172.842" y2="146.276" gradientUnits="userSpaceOnUse">
<stop stop-color="#996F25"/>
<stop offset="0.278" stop-color="#E6B966"/>
<stop offset="0.6436" stop-color="#FFEAC4"/>
<stop offset="1" stop-color="#996F25"/>
</linearGradient>
<linearGradient id="paint31_linear_121_2" x1="170.435" y1="146.276" x2="191.186" y2="146.276" gradientUnits="userSpaceOnUse">
<stop stop-color="#996F25"/>
<stop offset="0.278" stop-color="#E6B966"/>
<stop offset="0.6436" stop-color="#FFEAC4"/>
<stop offset="1" stop-color="#996F25"/>
</linearGradient>
<linearGradient id="paint32_linear_121_2" x1="200.536" y1="146.276" x2="227.579" y2="146.276" gradientUnits="userSpaceOnUse">
<stop stop-color="#996F25"/>
<stop offset="0.278" stop-color="#E6B966"/>
<stop offset="0.6436" stop-color="#FFEAC4"/>
<stop offset="1" stop-color="#996F25"/>
</linearGradient>
<linearGradient id="paint33_linear_121_2" x1="229.617" y1="146.276" x2="251.388" y2="146.276" gradientUnits="userSpaceOnUse">
<stop stop-color="#996F25"/>
<stop offset="0.278" stop-color="#E6B966"/>
<stop offset="0.6436" stop-color="#FFEAC4"/>
<stop offset="1" stop-color="#996F25"/>
</linearGradient>
<linearGradient id="paint34_linear_121_2" x1="253.441" y1="146.276" x2="275.374" y2="146.276" gradientUnits="userSpaceOnUse">
<stop stop-color="#996F25"/>
<stop offset="0.278" stop-color="#E6B966"/>
<stop offset="0.6436" stop-color="#FFEAC4"/>
<stop offset="1" stop-color="#996F25"/>
</linearGradient>
<linearGradient id="paint35_linear_121_2" x1="277.398" y1="146.276" x2="296.643" y2="146.276" gradientUnits="userSpaceOnUse">
<stop stop-color="#996F25"/>
<stop offset="0.278" stop-color="#E6B966"/>
<stop offset="0.6436" stop-color="#FFEAC4"/>
<stop offset="1" stop-color="#996F25"/>
</linearGradient>
<linearGradient id="paint36_linear_121_2" x1="299.937" y1="146.276" x2="318.517" y2="146.276" gradientUnits="userSpaceOnUse">
<stop stop-color="#996F25"/>
<stop offset="0.278" stop-color="#E6B966"/>
<stop offset="0.6436" stop-color="#FFEAC4"/>
<stop offset="1" stop-color="#996F25"/>
</linearGradient>
<linearGradient id="paint37_linear_121_2" x1="156.041" y1="27.1776" x2="170.71" y2="23.057" gradientUnits="userSpaceOnUse">
<stop stop-color="#996F25"/>
<stop offset="0.278" stop-color="#E6B966"/>
<stop offset="0.6436" stop-color="#FFEAC4"/>
<stop offset="1" stop-color="#996F25"/>
</linearGradient>
<linearGradient id="paint38_linear_121_2" x1="205.415" y1="23.3152" x2="222.959" y2="27.9845" gradientUnits="userSpaceOnUse">
<stop stop-color="#996F25"/>
<stop offset="0.278" stop-color="#E6B966"/>
<stop offset="0.6436" stop-color="#FFEAC4"/>
<stop offset="1" stop-color="#996F25"/>
</linearGradient>
<linearGradient id="paint39_linear_121_2" x1="188" y1="54.1429" x2="190.286" y2="54.1429" gradientUnits="userSpaceOnUse">
<stop stop-color="#996F25"/>
<stop offset="0.278" stop-color="#E6B966"/>
<stop offset="0.6436" stop-color="#FFEAC4"/>
<stop offset="1" stop-color="#996F25"/>
</linearGradient>
<clipPath id="clip0_121_2">
<rect width="370.07" height="182.42" fill="white"/>
</clipPath>
<clipPath id="clip1_121_2">
<rect width="18.1549" height="11" fill="white" transform="translate(206.829 18) rotate(14.9034)"/>
</clipPath>
<clipPath id="clip2_121_2">
<rect width="2.29" height="2.29" fill="white" transform="translate(188 53)"/>
</clipPath>
</defs>
</svg>
